<?xml version="1.0" encoding="UTF-8"?>
<svg version="1.1" xmlns="http://www.w3.org/2000/svg" width="1890" height="1890">
<path d="M0 0 C0.79164551 0.36111877 1.58329102 0.72223755 2.39892578 1.09429932 C12.54745331 5.72514337 22.68251334 10.38474813 32.80859375 15.06445312 C36.640622 16.83513559 40.47629296 18.59776504 44.3125 20.359375 C57.8768631 26.60386835 71.33188338 33.04698375 84.74975586 39.59848022 C95.80305083 44.99399254 106.90560002 50.2565866 118.07739258 55.40283203 C125.48513184 58.81866741 132.84599175 62.31934429 140.1875 65.875 C169.71904318 80.1113402 199.80918279 93.08988289 229.90821838 106.06997681 C235.87564252 108.64472643 241.83450767 111.23724368 247.78125 113.859375 C290.37964476 133.2984918 290.37964476 133.2984918 335.70703125 131 C341.30271094 128.44964524 346.19695701 125.67219282 349 120 C349.78244684 114.71008561 349.7113955 109.45632229 349.625 104.125 C349.42693914 86.61245906 349.42693914 86.61245906 354 79 C355.41226943 76.17546114 355.16406961 73.74980793 355.2109375 70.59375 C355.25347656 68.64082031 355.25347656 68.64082031 355.296875 66.6484375 C355.33778712 64.58627191 355.37468543 62.52431529 355.40136719 60.46191406 C355.53280926 51.10233232 355.77603495 42.29651402 360.75 34.125 C367.1785331 28.05360763 373.8157334 26.60964831 382.421875 26.734375 C417.48027889 29.33696393 450.43005117 53.91471791 478.66566467 72.78546143 C484.27857384 76.53116629 489.91858382 80.23482277 495.5625 83.93359375 C497.45056848 85.17245343 499.3385887 86.41138666 501.2265625 87.65039062 C504.11424453 89.54540136 507.00265991 91.43923909 509.89355469 93.3293457 C520.40015097 100.2010302 530.7813796 107.15195654 540.84423828 114.66088867 C544.96091441 117.71224826 549.18153271 120.58571564 553.4375 123.4375 C560.75560371 128.39585543 567.87236079 133.55976189 574.91015625 138.90625 C579.3810895 142.30228229 583.90937875 145.61833873 588.4375 148.9375 C596.67484299 154.98884916 604.81169526 161.16188068 612.91162109 167.39550781 C615.00669637 169.00514479 617.10604426 170.60902621 619.20703125 172.2109375 C627.26182106 178.35301723 635.28165231 184.53727486 643.26708984 190.76928711 C647.63721097 194.17598015 652.03039222 197.54905601 656.44677734 200.89550781 C665.19453148 207.52950737 673.69561935 214.42525962 682.1328125 221.44873047 C684.70252333 223.5836602 687.2875151 225.69914231 689.875 227.8125 C691.16083984 228.864375 691.16083984 228.864375 692.47265625 229.9375 C694.18651729 231.33613775 695.90274343 232.73188141 697.62109375 234.125 C708.3927361 242.87989073 718.91812992 251.88212363 729.0859375 261.33203125 C731.33201712 263.38842855 733.59781752 265.40377846 735.89453125 267.40234375 C748.13012467 278.07536433 759.63728967 289.53573595 771.125 301 C771.71149323 301.58390503 772.29798645 302.16781006 772.9022522 302.76940918 C779.1564173 309.00178963 785.30556517 315.24405239 791 322 C791.9609271 323.10660982 792.92313565 324.21210838 793.88671875 325.31640625 C808.76019156 342.50976335 822.10219099 360.00098391 833 380 C833.52207031 380.92554688 834.04414062 381.85109375 834.58203125 382.8046875 C851.77296465 414.82790381 852.58943994 450.95534561 842.5378418 485.26953125 C832.63201942 517.22572019 812.3569505 544.00673318 782.67578125 560.09375 C747.79511705 578.4137786 707.8154237 581.83679491 669 581 C668.07010254 580.98598145 667.14020508 580.97196289 666.18212891 580.95751953 C612.34025459 580.06276849 558.5265554 571.42101593 505.375 563.4375 C450.67582301 554.53701298 450.67582301 554.53701298 395.47021484 551.01464844 C391.97449587 550.99989234 388.4830875 550.93057975 384.98828125 550.8515625 C354.63423776 550.30481664 322.55734386 552.1882566 299.37695312 573.66162109 C296.4516828 576.50494236 294.14544789 579.54499301 292 583 C291.54109375 583.66 291.0821875 584.32 290.609375 585 C286.76060978 591.01646057 285.99496642 596.88324488 285.24462891 603.89501953 C284.88659461 606.97582964 284.41224429 610.0368616 283.95019531 613.10351562 C282.76545816 620.99977383 281.78244295 628.8927321 280.97412109 636.83642578 C279.8194076 648.12677831 278.20224324 659.15648786 275.80126953 670.25292969 C273.11740596 682.68144574 271.7513282 695.00068692 271.0625 707.6875 C269.41642372 734.35787457 266.08971481 764.14863774 246 784 C226.96770569 800.15411356 203.77633087 800.19470907 180 799 C172.50817714 798.35115463 165.28592612 796.81427164 158 795 C156.55608887 794.65388672 156.55608887 794.65388672 155.08300781 794.30078125 C118.17578845 785.34927088 82.55904098 771.19001701 46.98474121 758.09820557 C44.33831162 757.12447836 41.69126162 756.1524654 39.04394531 755.18115234 C12.84923277 745.55987726 -12.9908986 735.06750328 -38.8598938 724.61054993 C-100.97269856 699.31129165 -100.97269856 699.31129165 -163.77154541 675.7935791 C-166.28182037 674.89964042 -168.79008564 674.00017854 -171.29833984 673.10058594 C-232.30995889 648.60061628 -232.30995889 648.60061628 -295.23046875 654.53125 C-301.00540466 657.59383943 -305.63700492 660.91085139 -307.875 667.25 C-309.26573091 673.01537179 -309.69223918 678.95110396 -310.23193359 684.84570312 C-310.66729322 689.44525509 -311.31050906 693.7715666 -312.5 698.25 C-314.05910711 704.32272218 -314.53265609 710.33157785 -315 716.5625 C-315.52642274 723.58109812 -316.30077297 730.0321157 -318.28515625 736.8046875 C-319.28095402 741.25584912 -319.57580212 745.70926336 -319.9375 750.25 C-320.98426466 762.7777329 -322.63882135 775.43534545 -330 786 C-330.721875 787.051875 -331.44375 788.10375 -332.1875 789.1875 C-340.53343173 797.53343173 -349.95520697 800.21714274 -361.47338867 800.32983398 C-396.07611461 800.1356671 -426.66536326 785.32814999 -456.65991211 769.34936523 C-464.03823065 765.42672548 -471.51346787 761.71059417 -479 758 C-493.42797896 750.84015411 -507.80176793 743.60658975 -522 736 C-522.91716797 735.50918945 -523.83433594 735.01837891 -524.77929688 734.51269531 C-539.63793319 726.54739428 -554.35751763 718.35517024 -569 710 C-570.62397705 709.07380859 -570.62397705 709.07380859 -572.28076172 708.12890625 C-578.72733012 704.45096739 -585.17085688 700.76774051 -591.6126709 697.08148193 C-595.77019399 694.70266967 -599.92952324 692.327041 -604.08984375 689.953125 C-620.82601794 680.40201222 -637.52490598 670.78734131 -654.20898438 661.14550781 C-694.16057787 638.06101564 -734.19589476 615.21316188 -775.19140625 594.015625 C-778.75275245 592.17248743 -782.30395784 590.31338584 -785.83984375 588.421875 C-795.07151279 583.48471611 -804.3996137 578.77058228 -813.8125 574.1875 C-814.90933105 573.64802734 -816.00616211 573.10855469 -817.13623047 572.55273438 C-833.60544093 564.60565545 -855.15420533 554.89029982 -873.796875 559.19921875 C-877.09657098 560.39857633 -878.90873823 562.23413766 -881 565 C-883.14006369 571.42019108 -881.95781181 578.41504378 -881 585 C-885.25294156 581.18930539 -887.59696715 577.4920843 -889.9375 572.3125 C-890.27885986 571.56629395 -890.62021973 570.82008789 -890.97192383 570.05126953 C-897.86985681 554.60958095 -901.92311177 538.59552401 -905 522 C-905.20133545 520.92129639 -905.20133545 520.92129639 -905.40673828 519.82080078 C-908.90647449 499.92989501 -909.04129473 476.57087995 -904 457 C-903.8443457 456.35627441 -903.68869141 455.71254883 -903.52832031 455.04931641 C-896.9931229 428.35414376 -883.20156572 403.47134121 -871.46582031 378.77099609 C-866.33781866 367.92951229 -861.71099822 356.98262119 -857.5 345.75 C-857.07799316 344.63052979 -856.65598633 343.51105957 -856.22119141 342.35766602 C-855.82851074 341.28572998 -855.43583008 340.21379395 -855.03125 339.109375 C-854.68642578 338.17061523 -854.34160156 337.23185547 -853.98632812 336.26464844 C-851.73132388 328.80080766 -850.67567859 321.19086441 -849.88671875 313.453125 C-849.69173824 311.63463988 -849.49632764 309.81620083 -849.30053711 307.99780273 C-849.20078583 307.0592746 -849.10103455 306.12074646 -848.9982605 305.15377808 C-846.7258985 283.92059369 -844.22718295 262.69706796 -839.38110352 241.86914062 C-837.0705191 231.90899477 -836.16359036 221.94634136 -835.32119751 211.77954102 C-833.83107737 193.86260212 -831.18310324 176.25994392 -827.42773438 158.67553711 C-826.01057735 151.7404986 -825.26805135 144.78863194 -824.5625 137.75 C-821.32177017 106.26989206 -814.00671495 69.88900477 -788.91015625 48.19921875 C-778.39295208 40.25131815 -766.68590681 36.13780922 -754 33 C-753.30326172 32.82114258 -752.60652344 32.64228516 -751.88867188 32.45800781 C-747.63088897 31.78292323 -743.4067297 31.79693791 -739.1015625 31.76171875 C-738.12699097 31.75197021 -737.15241943 31.74222168 -736.14831543 31.73217773 C-713.71361886 31.55442789 -692.12840488 32.09479721 -670 36 C-668.40164307 36.26490234 -668.40164307 36.26490234 -666.77099609 36.53515625 C-614.22676737 45.28847524 -563.43234581 63.29585971 -513.03430176 79.99487305 C-510.2443124 80.91907035 -507.45382587 81.84174397 -504.66308594 82.76367188 C-488.72750773 88.02967781 -472.82706435 93.39066731 -456.95477295 98.84442139 C-358.83543055 136.62846551 -358.83543055 136.62846551 -258.6015625 129.3515625 C-255.61706285 127.69671887 -252.8051066 125.94063979 -250 124 C-249.38640625 123.5771875 -248.7728125 123.154375 -248.140625 122.71875 C-242.42439683 118.35791614 -237.34226547 112.03167013 -236.31640625 104.84375 C-236.19458984 103.99522461 -236.07277344 103.14669922 -235.94726562 102.27246094 C-235.75680664 100.90009277 -235.75680664 100.90009277 -235.5625 99.5 C-235.42908203 98.55672852 -235.29566406 97.61345703 -235.15820312 96.64160156 C-234.33010252 90.68687813 -233.62037658 84.72950132 -233 78.75 C-232.36581084 72.71074376 -231.54187109 66.73294474 -230.5 60.75 C-230.38140625 60.05874023 -230.2628125 59.36748047 -230.140625 58.65527344 C-229.61345473 55.74580928 -229.0014142 53.00393324 -228 50.21875 C-226.52641421 45.47564575 -226.06988045 40.67296182 -225.5 35.75 C-225.37109375 34.68168945 -225.2421875 33.61337891 -225.109375 32.51269531 C-224.44692999 26.97962336 -223.82369319 21.44302641 -223.23095703 15.90209961 C-218.18342013 -31.13176699 -218.18342013 -31.13176699 -204 -45 C-152.68251055 -83.01599618 -48.70131426 -22.23119238 0 0 Z M-210.51953125 -4.2578125 C-215.81450165 2.41787171 -221.15624541 10.71943336 -221.09765625 19.44921875 C-221.09443359 20.29677734 -221.09121094 21.14433594 -221.08789062 22.01757812 C-221.07951172 22.89865234 -221.07113281 23.77972656 -221.0625 24.6875 C-221.05798828 25.58017578 -221.05347656 26.47285156 -221.04882812 27.39257812 C-221.03704983 29.59511987 -221.02060164 31.79752599 -221 34 C-220.25105469 33.2471875 -219.50210938 32.494375 -218.73046875 31.71875 C-206.68882379 19.72878592 -195.38482921 14.59076317 -178.3125 14.625 C-155.49575155 14.74801926 -135.30315817 21.34752901 -114 29 C-113.23504211 29.2738855 -112.47008423 29.547771 -111.6819458 29.82995605 C-89.39936539 37.82100539 -67.56575554 46.53286048 -46.00520325 56.30224609 C-41.4380049 58.36737443 -36.84893931 60.37377212 -32.23828125 62.33984375 C-31.60945038 62.60812988 -30.98061951 62.87641602 -30.33273315 63.15283203 C-29.39555954 63.55260254 -29.39555954 63.55260254 -28.43945312 63.96044922 C-16.041853 69.24917503 -3.83822046 74.86144561 8.26928711 80.78076172 C16.25893804 84.68663705 24.29370176 88.47505664 32.375 92.1875 C47.91017252 99.34648387 63.26257686 106.87428239 78.62561035 114.39372253 C87.70985249 118.8394144 96.80788231 123.25657709 105.90704346 127.67163086 C108.05916757 128.71589068 110.21124277 129.7602512 112.36328125 130.8046875 C113.42518677 131.32002045 113.42518677 131.32002045 114.50854492 131.84576416 C119.669217 134.35124204 124.82541956 136.86578974 129.98046875 139.3828125 C147.89487841 148.12555033 165.85935726 156.73359922 184 165 C184.73347656 165.33451172 185.46695312 165.66902344 186.22265625 166.01367188 C204.73163029 174.45067921 223.2802871 182.78974697 242 190.75 C242.6526181 191.028508 243.30523621 191.30701599 243.97763062 191.59396362 C282.96728556 208.81179794 282.96728556 208.81179794 324.3125 207.375 C330.11450021 204.81153764 334.49091791 201.26362314 338 196 C338.35814154 193.65502563 338.63967395 191.29796432 338.875 188.9375 C339.50533003 183.25568058 340.8217971 178.55937306 343.1796875 173.36328125 C344.59023712 169.29955496 344.32487608 165.24143776 344 161 C343.50371094 161.39832031 343.00742188 161.79664063 342.49609375 162.20703125 C332.3891899 170.08926556 322.74134707 171.90364164 310 171 C254.16928234 163.3849361 199.23205561 132.93063043 149.17382812 108.54052734 C145.49171857 106.75328801 141.79789708 104.99186768 138.10083008 103.23583984 C110.78487131 90.25607984 83.65657215 76.87297707 56.625 63.3125 C36.32071606 53.13257399 15.89611414 43.31887524 -4.83227539 34.03173828 C-11.21072656 31.17277831 -17.56990708 28.28059196 -23.8984375 25.3125 C-58.39393943 9.14749229 -95.03963565 -4.09245433 -131.9375 -13.625 C-133.16774902 -13.94364014 -134.39799805 -14.26228027 -135.66552734 -14.59057617 C-147.29178278 -17.4927416 -158.62780263 -19.35369917 -170.625 -19.3125 C-171.57117188 -19.32861328 -172.51734375 -19.34472656 -173.4921875 -19.36132812 C-187.16665443 -19.37066861 -201.32336457 -14.80148947 -210.51953125 -4.2578125 Z M-220 58 C-222.50054647 60.92055236 -223.45411338 63.04525543 -223.984375 66.84375 C-224.11457031 67.76027344 -224.24476563 68.67679688 -224.37890625 69.62109375 C-224.50136719 70.57113281 -224.62382813 71.52117187 -224.75 72.5 C-224.88792969 73.45003906 -225.02585937 74.40007812 -225.16796875 75.37890625 C-226.00585688 81.23658211 -226.00585688 81.23658211 -225 87 C-224.2575 85.96875 -223.515 84.9375 -222.75 83.875 C-216.57684937 76.6802878 -207.16897904 73.37144 -198 72 C-163.02087645 69.33446569 -130.98840535 81.18934651 -99 94 C-97.87350037 94.45110138 -97.87350037 94.45110138 -96.72424316 94.91131592 C-42.56303102 116.63963791 9.92436978 141.85185597 62.06850386 168.00002074 C66.06591328 170.0038402 70.06470803 172.00489136 74.06338501 174.00617981 C84.16847215 179.06419414 94.27183349 184.12565065 104.375 189.1875 C115.31529639 194.66874825 126.25592711 200.14932399 137.19852698 205.62597257 C141.14818406 207.60285327 145.09742194 209.580561 149.04560471 211.56038475 C165.56282924 219.84277085 182.101941 228.05376444 198.80551434 235.95625973 C201.93800491 237.44613347 205.05367054 238.96857554 208.16796875 240.49609375 C228.95768922 250.67727487 249.91127424 260.20019296 271.875 267.5625 C273.08003174 267.96815186 274.28506348 268.37380371 275.52661133 268.79174805 C292.10902653 274.19529058 307.37000854 278.14604407 324 271 C329.0106502 267.48112458 331.93333942 263.76312553 333.62890625 257.78125 C334.11591842 254.13122192 333.93225421 250.595402 333.6875 246.9375 C333.65205078 246.23044922 333.61660156 245.52339844 333.58007812 244.79492188 C333.34774489 241.10186373 333.00806383 238.15552888 331 235 C330.50371094 235.33773437 330.00742188 235.67546875 329.49609375 236.0234375 C328.47708984 236.69246094 328.47708984 236.69246094 327.4375 237.375 C326.77621094 237.81585937 326.11492188 238.25671875 325.43359375 238.7109375 C310.49359747 246.62457919 290.76009608 241.20265445 275.53515625 236.71484375 C252.93450207 229.70854069 231.82908113 218.66998106 210.65332031 208.28027344 C203.77296374 204.90596438 196.87975234 201.55810473 189.98620605 198.21084595 C187.75656077 197.12818575 185.52720213 196.04493682 183.29785156 194.96166992 C175.25204855 191.05371329 167.19750911 187.16507604 159.125 183.3125 C158.22483154 182.88267822 157.32466309 182.45285645 156.3972168 182.01000977 C155.49398682 181.57873779 154.59075684 181.14746582 153.66015625 180.703125 C151.77339821 179.8021656 149.88668112 178.90112045 148 178 C146.44708252 177.2584668 146.44708252 177.2584668 144.86279297 176.50195312 C128.48815073 168.67154936 112.22542272 160.63859959 96.00369263 152.49685669 C85.32295473 147.13737763 74.62407954 141.83968018 63.81958008 136.7331543 C57.26570622 133.6293305 50.78498059 130.39473957 44.3125 127.125 C33.21121079 121.52748187 21.96069092 116.28406342 10.66796875 111.0859375 C5.78655243 108.83659636 0.93342589 106.53734463 -3.90405273 104.1953125 C-18.0699755 97.3425946 -32.53160224 91.17890619 -47 85 C-47.89428711 84.61602051 -48.78857422 84.23204102 -49.70996094 83.83642578 C-63.20127232 78.04453316 -76.8366742 72.60671415 -90.48269653 67.19200134 C-94.39069894 65.6412412 -98.29418943 64.07969221 -102.1953125 62.51171875 C-162.70604019 37.70593974 -162.70604019 37.70593974 -220 58 Z M-227 69 C-231.16930006 78.79785513 -232.73324757 86.27829113 -232 97 C-225.33225231 88.74469334 -225.60365236 79.1876024 -226 69 C-226.33 69 -226.66 69 -227 69 Z M357 77 C356.90428997 79.59314376 356.91495574 82.0996031 357 84.6875 C357.16662521 95.88590406 356.49817719 106.42625267 351.8203125 116.76953125 C350.52883333 120.28112461 350.72580385 123.29835194 351 127 C351.7528125 126.99097656 352.505625 126.98195313 353.28125 126.97265625 C375.52022198 127.59340425 394.36675564 143.66700254 411 157 C412.43085937 158.14082031 412.43085937 158.14082031 413.890625 159.3046875 C419.30213266 163.67319508 424.52951462 168.20523029 429.671875 172.88671875 C431.73932309 174.76337885 433.82886604 176.60744573 435.9375 178.4375 C440.0495723 182.01791042 444.07263136 185.69301184 448.09375 189.375 C450.2827418 191.35215388 452.49135947 193.28902005 454.72436523 195.21508789 C458.74131579 198.72759563 462.55047803 202.40526695 466.31640625 206.18359375 C466.97656235 206.84279312 467.63671844 207.50199249 468.31687927 208.1811676 C469.70035506 209.56396835 471.08259083 210.94801076 472.46362305 212.33325195 C474.55731669 214.43230343 476.65629874 216.5259594 478.75585938 218.61914062 C480.10969571 219.97363786 481.46322175 221.32844531 482.81640625 222.68359375 C483.43326797 223.29843124 484.0501297 223.91326874 484.6856842 224.54673767 C488.9864813 228.87034642 493.02332865 233.37813841 497 238 C498.30324219 239.48113281 498.30324219 239.48113281 499.6328125 240.9921875 C525.01801833 270.35626572 550.72370775 309.44701801 548 350 C545.91113183 363.66615446 539.75333095 374.3771484 530 384 C528.96746094 385.04800781 528.96746094 385.04800781 527.9140625 386.1171875 C500.52536064 412.28408853 454.69088483 418.26595138 419.1875 425.5625 C402.98493082 428.89498221 386.89445162 432.37500897 371 437 C369.64044189 437.38889404 369.64044189 437.38889404 368.25341797 437.78564453 C339.18146016 446.30737882 317.00375007 465.00758791 302 491 C301.65702881 491.59216309 301.31405762 492.18432617 300.96069336 492.79443359 C299.74747873 495.57974007 299.38025492 498.16208674 298.96484375 501.171875 C298.7956543 502.38721924 298.62646484 503.60256348 298.45214844 504.85473633 C298.28231445 506.14017334 298.11248047 507.42561035 297.9375 508.75 C297.7612207 510.05283936 297.58494141 511.35567871 297.40332031 512.69799805 C296.20554007 521.79399555 295.28886154 530.82864615 295 540 C297.02587474 537.47901238 299.03735668 534.95137817 301.0078125 532.38671875 C312.3493248 517.92733683 326.55919487 509.42897079 344 504 C345.12664062 503.64035156 346.25328125 503.28070312 347.4140625 502.91015625 C367.26516729 497.07806892 387.82958451 496.46275658 408.375 496.5625 C409.62091919 496.5638797 410.86683838 496.5652594 412.1505127 496.56668091 C439.37836794 496.62093916 466.5437669 497.97298279 493.72412109 499.48852539 C510.62852701 500.42734749 527.51919957 501.21770672 544.4453125 501.64453125 C545.26739952 501.66603682 546.08948654 501.68754238 546.93648529 501.70969963 C596.52661866 502.97488162 658.61809415 503.02127959 698 468 C698.82757812 467.33742188 699.65515625 466.67484375 700.5078125 465.9921875 C713.68745229 455.06961141 721.05645575 439.90883498 723 423 C726.1133494 380.909911 695.61942317 337.57680985 669.5625 307.3125 C667.71916635 305.19837733 665.86144406 303.09830446 664 301 C662.77024445 299.58384449 661.54098098 298.16726131 660.3125 296.75 C659.21061917 295.49798456 658.10632179 294.248093 657 293 C655.92298828 291.78376953 655.92298828 291.78376953 654.82421875 290.54296875 C650.9221335 286.1686984 646.96442163 281.91178629 642.77758789 277.81005859 C641.03938825 276.04010775 639.42663128 274.21070431 637.81640625 272.32421875 C633.91440818 267.83918717 629.77615292 263.62839692 625.5625 259.4375 C624.85029297 258.72142578 624.13808594 258.00535156 623.40429688 257.26757812 C619.34099486 253.21165722 615.17198341 249.35359057 610.82397461 245.60571289 C608.2575967 243.34643468 605.8890483 240.94661573 603.5 238.5 C599.88592142 234.83699046 596.19738372 231.3383435 592.28125 228 C589.80690034 225.83070715 587.41038728 223.59085254 585.01196289 221.33837891 C579.36455274 216.03481615 573.63293366 210.95931876 567.58203125 206.11328125 C564.95578232 203.96380974 562.44366547 201.72539912 559.9375 199.4375 C555.92924038 195.78960442 551.79660268 192.36846243 547.54296875 189.01171875 C544.96429192 186.97175167 542.41671468 184.89830173 539.875 182.8125 C538.49828125 181.68521484 538.49828125 181.68521484 537.09375 180.53515625 C535.47065354 179.20511887 533.84773646 177.8748605 532.2265625 176.54248047 C522.74095525 168.75178593 513.11519946 161.18258537 503.33056641 153.77148438 C500.83190465 151.87222922 498.34305211 149.96061442 495.85546875 148.046875 C486.42940586 140.8062904 476.92995924 133.72732285 467.1796875 126.9296875 C462.72472016 123.82152181 458.33209509 120.63015856 453.9375 117.4375 C450.96180905 115.28681307 447.98206926 113.14183252 445 111 C444.3208252 110.51112305 443.64165039 110.02224609 442.94189453 109.51855469 C434.68970231 103.60888128 426.29187851 98.32557916 417.36376953 93.49194336 C413.25216059 91.2657511 409.27647754 88.96038691 405.375 86.375 C392.99809144 78.33953014 370.17104452 63.82895548 357 77 Z M-798.6875 102.4375 C-814.58095597 120.04916743 -824.59826037 143.85631272 -826.125 167.375 C-826.25237549 169.23463379 -826.25237549 169.23463379 -826.38232422 171.13183594 C-826.98422049 180.43519043 -827.23961408 189.68167479 -827 199 C-824.12586339 195.52635024 -822.30010162 191.66573572 -820.375 187.625 C-816.48307793 179.66346333 -812.00887282 172.30231276 -807 165 C-806.46117187 164.18015625 -805.92234375 163.3603125 -805.3671875 162.515625 C-792.79573035 144.70079627 -770.72439495 135.84089381 -750 132 C-729.41634243 128.7419536 -709.10960255 130.09455036 -688.44091797 131.73974609 C-686.16519994 131.91187008 -683.88805432 132.06614339 -681.60986328 132.20166016 C-672.38949537 132.76273998 -663.35393469 134.00083853 -654.25 135.5 C-653.46199005 135.6287149 -652.6739801 135.75742981 -651.86209106 135.89004517 C-623.75276437 140.51630271 -596.01026972 146.87507347 -568.375 153.75 C-567.46201141 153.97634125 -566.54902283 154.2026825 -565.60836792 154.43588257 C-556.34783857 156.74128007 -547.17230873 159.17527525 -538.08496094 162.09242249 C-529.26310278 164.9086469 -520.31254143 167.27024715 -511.375 169.6875 C-509.4483017 170.21085701 -507.52162564 170.73429588 -505.5949707 171.2578125 C-489.12271233 175.7260219 -472.62236003 180.08609036 -456.10852051 184.39778137 C-451.54276976 185.59124268 -446.98335589 186.80684474 -442.42578125 188.03125 C-434.6390797 190.11181961 -426.82438507 192.06733142 -419 194 C-417.61652424 194.34304969 -416.2330608 194.68614905 -414.84960938 195.02929688 C-338.64711372 218.00726406 -338.64711372 218.00726406 -264.1875 203.75 C-255.78807715 198.06767257 -248.00533408 191.28665304 -245.83203125 181.0859375 C-245.48157507 179.18421678 -245.14204385 177.28045587 -244.8125 175.375 C-244.63525391 174.44042969 -244.45800781 173.50585938 -244.27539062 172.54296875 C-243.10209351 165.97431695 -242.78831609 159.66520452 -243 153 C-244.4540625 154.2684375 -244.4540625 154.2684375 -245.9375 155.5625 C-247.29043425 156.70978824 -248.6446916 157.85551735 -250 159 C-250.67546875 159.5878125 -251.3509375 160.175625 -252.046875 160.78125 C-270.85883655 176.43499903 -298.12626238 176.78350338 -321.34619141 174.69970703 C-351.4559396 171.06281638 -380.99287577 161.82108093 -409.82666016 152.74975586 C-421.04407087 149.24494981 -432.3283634 145.98896771 -443.625 142.75 C-458.429475 138.50274969 -473.20184435 134.16775266 -487.9375 129.6875 C-589.52182208 98.1097148 -589.52182208 98.1097148 -694 79 C-694.82193848 78.90428711 -695.64387695 78.80857422 -696.49072266 78.70996094 C-732.34142881 74.96306189 -770.81153229 77.15464557 -798.6875 102.4375 Z M-225.3828125 106.046875 C-227.57762338 108.69761278 -228.0941349 110.82720167 -228.56640625 114.19140625 C-229.26460881 118.71399759 -230.5644438 123.09246765 -231.76855469 127.50366211 C-232.88249885 131.74969011 -232.88249885 131.74969011 -232 136 C-231.55011719 135.49210937 -231.10023438 134.98421875 -230.63671875 134.4609375 C-221.10755455 124.26339505 -209.8031115 119.39400231 -195.93359375 118.68359375 C-138.03866357 116.90878608 -78.9746401 149.56019931 -28.00512695 174.03814697 C-26.09516439 174.95434994 -24.18367178 175.86725973 -22.27148438 176.77880859 C-2.77771146 186.07649129 16.54495794 195.72167959 35.86594391 205.37172699 C37.8470822 206.36105854 39.82851574 207.34979664 41.80999756 208.33843994 C55.9476745 215.39440892 70.03679308 222.52492736 83.99121094 229.93841553 C87.12417705 231.59409369 90.27365037 233.21711793 93.42578125 234.8359375 C95.12589355 235.70968018 95.12589355 235.70968018 96.86035156 236.60107422 C98.56916504 237.47916748 98.56916504 237.47916748 100.3125 238.375 C108.85024687 242.77088494 117.34284915 247.23269995 125.75 251.875 C138.46081178 258.88969036 151.40251001 265.45458317 164.31933594 272.07875061 C169.60478182 274.7915225 174.87220086 277.53699094 180.125 280.3125 C180.85106445 280.69510986 181.57712891 281.07771973 182.32519531 281.47192383 C185.40726335 283.09727079 188.48722753 284.72626064 191.56103516 286.3671875 C206.33514875 294.25097626 221.33892012 301.48190911 236.57373047 308.43164062 C239.85910602 309.93550642 243.13586863 311.45654319 246.41015625 312.984375 C280.23064734 329.54344922 280.23064734 329.54344922 317 334 C318.4176249 328.3295004 319.38635434 322.67155864 320.125 316.875 C320.21249512 316.20662109 320.29999023 315.53824219 320.39013672 314.84960938 C320.91731726 310.54306409 321.07883604 306.33598195 321 302 C320.154375 302.16628906 319.30875 302.33257813 318.4375 302.50390625 C304.20175061 304.55838372 290.4424021 300.18634808 277 296 C276.16984375 295.74476563 275.3396875 295.48953125 274.484375 295.2265625 C260.5916937 290.87949771 247.55722791 284.85402296 234.42626953 278.61816406 C231.11533421 277.05447023 227.79319618 275.51840736 224.46484375 273.9921875 C207.79229707 266.32735228 191.29367442 258.31688206 174.8125 250.25 C173.72462189 249.71847321 172.63674377 249.18694641 171.51589966 248.63931274 C160.29605258 243.15340723 149.12760858 237.60188033 138.10054016 231.73724365 C128.16413765 226.4666147 118.07352184 221.50182962 108 216.5 C104.08206586 214.5546189 100.16563412 212.60625573 96.25 210.65625 C95.40147461 210.23613647 94.55294922 209.81602295 93.67871094 209.38317871 C87.74861147 206.42954158 81.88295249 203.36407526 76.02709961 200.2668457 C66.18961168 195.06881756 56.26695523 190.05161078 46.31640625 185.07421875 C44.48247189 184.15563616 42.64856446 183.23699981 40.81468201 182.3183136 C36.99768036 180.40684837 33.17988007 178.49698938 29.36157227 176.58813477 C25.51024629 174.6625123 21.66033947 172.73409935 17.81176758 170.80297852 C-3.0816383 160.31971582 -23.99240155 149.95423555 -45.26315308 140.25515747 C-49.12158221 138.48562622 -52.95547809 136.66667527 -56.78515625 134.8359375 C-140.69505962 92.29409124 -140.69505962 92.29409124 -225.3828125 106.046875 Z M-232 148 C-237.24384399 154.12212328 -237.28656865 162.26264639 -237 170 C-236.0409375 168.9790625 -236.0409375 168.9790625 -235.0625 167.9375 C-222.99019375 156.03427367 -209.72927177 152.182008 -192.9375 151.6875 C-146.72470864 152.68132347 -103.91073575 177.1660537 -63.3802948 196.94569397 C-57.1043816 200.00843813 -50.82013986 203.04923998 -44.50683594 206.03442383 C-19.69788848 217.77176224 5.02814545 229.89523937 29.0078125 243.25390625 C34.75098041 246.44442669 40.5955493 249.43296662 46.4375 252.4375 C55.5452253 257.13410819 64.50516743 262.03822063 73.40161133 267.12255859 C80.25756574 271.03570741 87.1718172 274.82512245 94.125 278.5625 C102.39400086 283.01243915 110.58029822 287.57999204 118.71533203 292.26977539 C126.2593186 296.60654401 133.87382305 300.81034139 141.5 305 C150.79323518 310.10712837 160.04918794 315.27026002 169.24121094 320.55810547 C176.04673001 324.4694908 182.89413547 328.30266294 189.75 332.125 C197.34305441 336.36097452 204.88254281 340.6640118 212.35107422 345.11523438 C218.78301423 348.92335852 225.32887011 352.51778793 231.875 356.125 C245.76090889 363.79192231 259.42201125 371.79941015 273 380 C274.27979736 380.7724707 274.27979736 380.7724707 275.58544922 381.56054688 C297.50754514 394.85329624 297.50754514 394.85329624 303 405 C303.66 405.99 304.32 406.98 305 408 C307.12320302 405.87679698 306.98050813 401.65664247 307.4453125 398.73046875 C307.5794455 397.89792068 307.71357849 397.06537262 307.85177612 396.20759583 C308.13463906 394.44172235 308.41526402 392.67548918 308.69384766 390.90893555 C309.12175534 388.20798028 309.5624552 385.50931715 310.00390625 382.81054688 C310.27683075 381.09647962 310.54899111 379.38229049 310.8203125 377.66796875 C311.02021286 376.45683662 311.02021286 376.45683662 311.22415161 375.22123718 C312.06230117 370.03114614 312.06230117 370.03114614 311 365 C308.67812772 363.41882917 306.47480907 362.10798915 304 360.8125 C303.27651367 360.42231689 302.55302734 360.03213379 301.80761719 359.63012695 C300.286789 358.81206592 298.76295445 357.99957196 297.23632812 357.19238281 C295.18797827 356.10022772 293.16234002 354.97641893 291.140625 353.8359375 C279.19409872 347.18123258 266.6230226 341.98448242 254.03076172 336.69482422 C226.388643 325.08076708 199.18867988 313.18039779 172.94091797 298.61962891 C167.56782762 295.6605486 162.15600712 292.77335655 156.75 289.875 C148.7168873 285.55995729 140.71161502 281.20275326 132.75366211 276.75073242 C126.63868315 273.33628771 120.47795857 270.00974327 114.3125 266.6875 C106.37816799 262.41173827 98.51139447 258.0367939 90.6875 253.5625 C81.37255389 248.24656494 71.91968583 243.24063941 62.36401367 238.37133789 C55.35196259 234.78652217 48.43098546 231.06213193 41.52734375 227.2734375 C30.48768345 221.22348321 19.33935368 215.40615419 8.125 209.6875 C7.15377197 209.19176483 6.18254395 208.69602966 5.18188477 208.18527222 C-12.04065538 199.40626609 -29.35613127 190.90009773 -47 183 C-48.06456421 182.52330872 -48.06456421 182.52330872 -49.15063477 182.0369873 C-81.14200597 167.74525501 -113.55380357 154.50960939 -147 144 C-147.94311035 143.70125977 -148.8862207 143.40251953 -149.85791016 143.09472656 C-163.68456808 138.73821446 -177.43386493 134.73163236 -192 134 C-192.79535156 133.94714844 -193.59070313 133.89429688 -194.41015625 133.83984375 C-209.05638792 133.2920985 -221.35132796 138.13049909 -232 148 Z M-240 147 C-240.33 148.65 -240.66 150.3 -241 152 C-240.34 151.34 -239.68 150.68 -239 150 C-239.33 149.01 -239.66 148.02 -240 147 Z M-239 159 C-240.78409802 162.06246747 -241.22880021 164.22079273 -241.125 167.75 C-241.10695313 168.54921875 -241.08890625 169.3484375 -241.0703125 170.171875 C-241.04710937 170.77515625 -241.02390625 171.3784375 -241 172 C-237.98888062 167.48332093 -237.89932074 164.3360009 -238 159 C-238.33 159 -238.66 159 -239 159 Z M-237.625 180.87109375 C-240.61039613 185.49336901 -242.57759479 191.87995673 -241.5625 197.36328125 C-241.2840625 198.17345703 -241.2840625 198.17345703 -241 199 C-240.21625 197.96875 -239.4325 196.9375 -238.625 195.875 C-231.5636937 187.70571356 -221.74861942 183.86965426 -211.17211914 182.68261719 C-157.59146821 179.82301457 -103.84657766 209.17169893 -57 232 C-56.34346436 232.31966736 -55.68692871 232.63933472 -55.01049805 232.96868896 C-41.51604112 239.54755478 -28.15443192 246.33850453 -15.0144043 253.6027832 C-8.54359437 257.17943042 -2.00814934 260.61077199 4.5625 264 C14.60011712 269.19817202 24.42722848 274.70388732 34.20117188 280.37988281 C37.16430949 282.09511146 40.13596776 283.79482869 43.109375 285.4921875 C58.15482508 294.09714123 72.99082596 303.00661393 87.78076172 312.04003906 C92.48559126 314.90446888 97.21009573 317.73553686 101.9375 320.5625 C114.8729166 328.309373 127.66154771 336.27555824 140.39501953 344.34960938 C143.05187652 346.03286647 145.7114119 347.71183574 148.37109375 349.390625 C248.27573506 412.56417904 248.27573506 412.56417904 257.4375 450 C259.51515754 463.0595617 256.3068391 475.57363099 249.00390625 486.3984375 C236.15715768 503.07667249 212.98002802 510.80107808 192.734375 513.56640625 C173.13235535 515.65199972 153.43210304 513.69511159 134 511 C132.96697754 510.86078125 131.93395508 510.7215625 130.86962891 510.578125 C114.60713154 508.34251677 98.73167753 504.80518466 82.79199219 500.91894531 C79.07639195 500.0185127 75.35588853 499.14238696 71.6328125 498.2734375 C9.55271171 483.71076905 -51.19575968 462.01535788 -111.3125 440.875 C-183.29115773 412.22557485 -183.29115773 412.22557485 -257.64453125 416.8125 C-264.51229886 420.27485713 -270.83106316 425.47997669 -275 432 C-275.80688826 434.8145031 -275.94714739 437.04025389 -276 440 C-275.05125 439.113125 -274.1025 438.22625 -273.125 437.3125 C-259.33533737 425.52860648 -242.20135 425.68210991 -225 427 C-214.54282308 428.36000298 -204.26985665 430.64579426 -194 433 C-192.97261719 433.22961426 -191.94523438 433.45922852 -190.88671875 433.69580078 C-149.00428588 443.15335286 -108.205331 457.87817008 -67.75 472.0625 C52.32928311 517.5248471 52.32928311 517.5248471 178 538 C179.46614746 538.04084717 179.46614746 538.04084717 180.96191406 538.08251953 C211.46072639 538.800936 240.43434734 535.47119977 263.54248047 513.46484375 C279.95241553 496.9724467 288.58633868 471.96683823 289.3125 449.0625 C288.91874424 431.52878745 282.23792998 420.07760776 270 408 C266.4635146 404.81880293 262.77316993 401.8946838 259 399 C258.44666992 398.5663916 257.89333984 398.1327832 257.32324219 397.68603516 C246.41088793 389.13872731 234.91543393 381.6046963 223.26318359 374.11279297 C219.81329723 371.87911673 216.38282565 369.61800709 212.95703125 367.34765625 C197.54217958 357.14149368 181.94732034 347.36158327 166 338 C164.83855153 337.31568912 163.67725984 336.63111209 162.51611328 335.94628906 C154.61599836 331.28769191 146.70256876 326.65228921 138.77783203 322.03570557 C137.60419173 321.35198192 136.43068633 320.66802664 135.25732422 319.98382568 C122.66309991 312.64032639 110.0255792 305.41357984 97.19458008 298.49145508 C89.25650117 294.18880713 81.46908268 289.64595818 73.68359375 285.07446289 C64.86684166 279.90293332 55.96436217 274.91006053 47 270 C45.37497843 269.10550794 43.74997924 268.21097521 42.125 267.31640625 C27.02160012 259.02288762 11.80110991 250.95062566 -3.42822266 242.89160156 C-6.40647119 241.3152222 -9.38158217 239.73303341 -12.35546875 238.1484375 C-32.45425479 227.46223031 -52.87021083 217.47823721 -73.5546875 207.98046875 C-77.3109888 206.25361508 -81.05043577 204.50528056 -84.7578125 202.67578125 C-162.21919998 163.78897359 -162.21919998 163.78897359 -237.625 180.87109375 Z M345 172 C342.72361335 174.27638665 342.79768136 179.55947751 342.28125 182.74609375 C341.67191249 186.24006097 341.0083428 188.9824631 339.46875 192.21875 C337.07254113 197.43805286 337.20049292 203.22674056 336.875 208.875 C336.72790778 211.1433168 336.57949506 213.41154841 336.4296875 215.6796875 C336.36458984 216.76403076 336.29949219 217.84837402 336.23242188 218.96557617 C336.02974425 221.61166881 335.68239505 224.17343748 335.2734375 226.79296875 C334.71769633 231.52594111 336.02502294 235.07536462 337.75 239.4375 C351.15235477 276.90053101 341.58775852 312.04725936 329 348 C328.7298407 348.77273254 328.4596814 349.54546509 328.18133545 350.34161377 C324.86877789 359.81222144 321.52691616 369.27214082 318.15405273 378.72143555 C317.77321533 379.80336182 317.39237793 380.88528809 317 382 C316.65018066 382.93634277 316.30036133 383.87268555 315.93994141 384.83740234 C314.70128814 389.00506844 314.11473209 393.16328073 313.52734375 397.46484375 C313.39936905 398.37520889 313.27139435 399.28557404 313.13954163 400.223526 C312.87042696 402.14871038 312.60416435 404.07429532 312.34057617 406.00024414 C311.9429399 408.89785891 311.53369817 411.79365776 311.12304688 414.68945312 C309.66553023 425.12059426 308.48507387 435.47502503 308 446 C310.54574634 442.68620586 312.55207517 439.29329082 314.5625 435.625 C328.80529296 410.30447917 348.4836794 391.75894275 371.67919922 374.71289062 C376.85270164 370.89453453 381.93647156 366.96276139 387 363 C387.928125 362.278125 388.85625 361.55625 389.8125 360.8125 C406.82108625 347.28294275 422.00230305 331.21829512 426 309 C429.26690215 275.22634251 414.65797844 242.12785244 393.58056641 216.2578125 C391.06575803 213.2554476 388.50069877 210.29945143 385.91796875 207.35546875 C383.29696727 204.36552864 380.79500047 201.29387494 378.3125 198.1875 C374.18402458 193.11260513 369.75384119 188.49021135 365 184 C364.33097656 183.360625 363.66195313 182.72125 362.97265625 182.0625 C358.0659937 177.55420015 351.94727757 172 345 172 Z M-797 207 C-797.68320312 207.68320312 -798.36640625 208.36640625 -799.0703125 209.0703125 C-805.02065976 215.39401489 -809.59057341 222.56416337 -814 230 C-814.3727002 230.62342285 -814.74540039 231.2468457 -815.12939453 231.88916016 C-835.58920368 266.66994731 -848.57016809 318.92492113 -839 359 C-832.95205575 381.39629356 -818.91527729 397.33564056 -802.875 413.4375 C-801.96935303 414.34870605 -801.06370605 415.25991211 -800.13061523 416.19873047 C-794.05446047 422.21062508 -787.70095161 427.69839072 -781 433 C-779.88794189 433.89319946 -779.88794189 433.89319946 -778.75341797 434.80444336 C-769.72532749 442.03637474 -760.48907123 448.85187177 -750.89648438 455.31542969 C-746.01447068 458.6068777 -741.22294811 461.98447495 -736.5 465.5 C-730.17792975 470.1972271 -723.71419568 474.66117517 -717.19848633 479.08496094 C-711.81507198 482.74375016 -706.48807967 486.47242252 -701.1875 490.25 C-696.22429644 493.78252922 -691.21865479 497.19332005 -686.0625 500.4375 C-678.20524176 505.39024924 -670.76043849 510.89321932 -663.25830078 516.36230469 C-657.60983415 520.45851163 -651.89132166 524.45656857 -646.18066406 528.46533203 C-643.99889834 530.00077531 -641.82327901 531.54461257 -639.6484375 533.08984375 C-624.28362706 543.97003061 -608.5938448 554.36462305 -592.89172363 564.74884033 C-591.15614493 565.89672792 -589.42129786 567.0457215 -587.68652344 568.19482422 C-573.65950513 577.47251918 -559.41383611 586.35702745 -545.06152344 595.12158203 C-542.23245482 596.85737581 -539.41433885 598.60905516 -536.6015625 600.37109375 C-525.06347473 607.59569323 -513.35773542 614.47997104 -501.54296875 621.2421875 C-497.3216318 623.65918804 -493.11562081 626.09911906 -488.92578125 628.5703125 C-475.43688013 636.52561793 -461.78120965 644.09796902 -447.94628906 651.43505859 C-445.3212729 652.82935372 -442.70247651 654.23441716 -440.0859375 655.64453125 C-419.50819241 666.68442441 -398.50911745 676.59301466 -376.69921875 684.95068359 C-374.0627692 685.97559859 -371.45289082 687.05381174 -368.83984375 688.13671875 C-364.33909528 689.93960708 -359.8607978 691.23016755 -355.125 692.25 C-354.34833984 692.41765869 -353.57167969 692.58531738 -352.77148438 692.75805664 C-341.27856034 695.09925192 -330.28822687 695.09150031 -320 688.8125 C-316.38818128 685.87344309 -315.72246306 682.45503409 -315 678 C-314.6576434 674.50234699 -314.49749492 671.01152092 -314.375 667.5 C-314.33632813 666.5821875 -314.29765625 665.664375 -314.2578125 664.71875 C-314.16450436 662.47935472 -314.07871815 660.23994746 -314 658 C-314.721875 658.29648438 -315.44375 658.59296875 -316.1875 658.8984375 C-337.84189706 667.37974302 -358.53255273 660.84824396 -379.04492188 652.07226562 C-395.43742147 644.8325092 -410.75980652 636.19122931 -425.77294922 626.43896484 C-429.28306216 624.17097474 -432.82778903 621.95935185 -436.375 619.75 C-437.03008545 619.34144775 -437.6851709 618.93289551 -438.36010742 618.51196289 C-439.63365134 617.71810499 -440.9074875 616.92471568 -442.18164062 616.13183594 C-443.9189709 615.05043648 -445.65483446 613.96668171 -447.390625 612.8828125 C-452.65881554 609.61246233 -457.95601696 606.45164727 -463.375 603.4375 C-470.85212511 599.24910464 -477.97964247 594.53014802 -485.12646484 589.80639648 C-490.60816913 586.18781505 -496.13369035 582.65742601 -501.71484375 579.1953125 C-509.99017375 574.05333716 -518.09761365 568.67756209 -526.1875 563.25 C-527.64007431 562.27777992 -529.09279437 561.30577757 -530.5456543 560.33398438 C-532.70891421 558.88688715 -534.87202217 557.43956762 -537.03443909 555.99121094 C-541.05018744 553.30175803 -545.07170224 550.62141628 -549.1015625 547.953125 C-578.128253 528.7298184 -606.55102324 508.4219116 -634 487 C-634.57057129 486.5555957 -635.14114258 486.11119141 -635.72900391 485.65332031 C-646.38847764 477.34550031 -656.86832894 468.84351334 -667.16210938 460.0859375 C-670.59040745 457.17412087 -674.05974315 454.32236523 -677.5625 451.5 C-682.63607493 447.37309794 -687.43741142 442.99897442 -692.23046875 438.5546875 C-694.45918393 436.49886278 -696.70767919 434.48383043 -699 432.5 C-703.88405088 428.26044243 -708.62925129 423.87013338 -713.38378906 419.48681641 C-715.009876 417.99091467 -716.64111551 416.50081201 -718.2734375 415.01171875 C-728.93729976 405.26434399 -739.02679588 395.36807954 -748 384 C-748.89400034 382.91775405 -749.78991238 381.83708511 -750.6875 380.7578125 C-757.57251274 372.38388874 -763.05587711 363.64038737 -768 354 C-768.50402344 353.02160156 -769.00804687 352.04320312 -769.52734375 351.03515625 C-778.74350863 331.95853532 -781.33110997 309.20678348 -775.39453125 288.75390625 C-768.94893857 270.3895029 -756.55998042 257.35976667 -739.5 248.3125 C-711.11952291 234.9865617 -680.37639886 231.56549382 -649.375 231.75 C-648.40734711 231.75376648 -647.43969421 231.75753296 -646.44271851 231.76141357 C-591.26380687 232.01240491 -536.97804414 243.9749055 -483.03715515 254.61470032 C-474.18527448 256.36012502 -465.32699432 258.07177443 -456.46777344 259.77954102 C-449.68891955 261.087702 -442.91322864 262.40992655 -436.140625 263.75 C-353.5914145 282.55701509 -353.5914145 282.55701509 -274 264 C-270.02660006 261.2765987 -266.48396146 258.32390198 -263 255 C-262.20980469 254.26910156 -261.41960938 253.53820312 -260.60546875 252.78515625 C-252.69311823 243.98890351 -253.328865 232.24519837 -253 221 C-253.43570313 221.37511719 -253.87140625 221.75023437 -254.3203125 222.13671875 C-255.5676755 223.20858695 -256.81698985 224.27818699 -258.06787109 225.34594727 C-259.2435373 226.35240905 -260.41447345 227.36447735 -261.57666016 228.38647461 C-280.95492897 245.16048526 -308.84717251 245.19674589 -333.00341797 243.83007812 C-390.41201612 239.459405 -447.37032738 221.94141319 -503.04797363 208.12313843 C-578.92735554 188.71949865 -578.92735554 188.71949865 -656.01806641 175.37451172 C-658.67523249 175.04078871 -661.32738109 174.68072537 -663.98046875 174.31640625 C-709.76968916 168.46242612 -762.80448716 172.80448716 -797 207 Z M-245 178 C-244 181 -244 181 -244 181 Z M-238.859375 207.87109375 C-243.15576596 212.79148435 -244.12413538 215.29668927 -244 222 C-243.01 221.13375 -242.02 220.2675 -241 219.375 C-239.67057292 218.24538661 -238.33705246 217.1205773 -237 216 C-236.37480469 215.4740625 -235.74960937 214.948125 -235.10546875 214.40625 C-222.40797504 204.26894341 -207.08522659 202.9833514 -191.44482422 204.67675781 C-152.29994243 209.85229441 -113.99475892 230.74970251 -79 248 C-77.9363623 248.52158691 -76.87272461 249.04317383 -75.77685547 249.58056641 C-60.63844957 257.01474451 -45.72386577 264.77602655 -31 273 C-30.10313477 273.49935059 -29.20626953 273.99870117 -28.28222656 274.51318359 C-4.52227806 287.76343611 18.99651234 301.47323106 42 316 C43.00546875 316.63292969 44.0109375 317.26585937 45.046875 317.91796875 C57.55417947 325.80367169 69.88311111 333.84398392 81.87939453 342.48730469 C84.15373884 344.1096668 86.44697074 345.70202448 88.74609375 347.2890625 C109.04251074 361.31080816 129.10634045 375.97164577 147 393 C147.57331055 393.54462891 148.14662109 394.08925781 148.73730469 394.65039062 C162.2242582 407.55480214 177.46049461 422.37155258 178.16796875 442.20703125 C177.82245004 447.95228428 176.39743014 452.24323068 172.8125 456.75 C152.30612608 473.15509914 122.61581538 471.6452345 97.77246094 469.28100586 C92.16032668 468.65610297 86.5815955 467.85270246 81 467 C79.70513672 466.80615723 78.41027344 466.61231445 77.07617188 466.41259766 C46.16325283 461.68585022 16.10498735 453.31118634 -14 445 C-15.08379944 444.70140076 -16.16759888 444.40280151 -17.28424072 444.09515381 C-51.88732203 434.54848874 -86.15314787 423.9421806 -120.41491699 413.24609375 C-136.31329923 408.28436558 -152.30337194 403.75333056 -168.40231323 399.49136353 C-170.37824069 398.96804284 -172.35348005 398.44211487 -174.32791138 397.91317749 C-192.36762672 393.096233 -211.13730488 388.12800715 -229.9375 388.5 C-231.49114258 388.51812744 -231.49114258 388.51812744 -233.07617188 388.53662109 C-247.08054768 388.89609869 -258.98275428 391.58404771 -269.5 401.3125 C-271.60933602 405.09172704 -271.8138096 408.72693029 -272 413 C-271.52691406 412.61328125 -271.05382812 412.2265625 -270.56640625 411.828125 C-259.79084193 403.34210554 -248.87119429 400.64012511 -235.3125 400.6875 C-234.44044922 400.67138672 -233.56839844 400.65527344 -232.66992188 400.63867188 C-214.86215973 400.62627956 -197.33577098 404.49812745 -180.1875 408.9375 C-179.24780365 409.17709442 -178.3081073 409.41668884 -177.3399353 409.6635437 C-141.28045533 418.85869413 -105.8750622 430.12176559 -70.41792297 441.37979126 C40.70693927 479.03659522 40.70693927 479.03659522 156.1875 494.3125 C156.90198303 494.3223996 157.61646606 494.33229919 158.3526001 494.34249878 C176.87820305 494.5560527 198.04286839 492.34546449 212 479 C212.64710938 478.38125 213.29421875 477.7625 213.9609375 477.125 C220.03593166 470.76804408 223.14302896 463.94563933 223.5 455.125 C222.72411002 436.13994215 210.17925663 422.17925663 197.4453125 409.4453125 C195.88466663 407.88466663 194.33982737 406.30794068 192.81640625 404.7109375 C187.65083264 399.35736207 182.271513 394.69848782 176.38061523 390.17504883 C172.35570867 387.08284165 168.46656178 383.87878094 164.625 380.5625 C130.89258841 351.7444068 91.51956884 328.72394461 53.28961182 306.42907715 C52.67325867 306.06963013 52.05690552 305.71018311 51.421875 305.33984375 C50.80439392 304.9797522 50.18691284 304.61966064 49.55072021 304.24865723 C43.05232057 300.45453941 36.59023512 296.60029295 30.125 292.75 C20.97582509 287.31000372 11.76893058 281.9908016 2.48193359 276.78979492 C-3.31353134 273.53905957 -9.05467165 270.2099066 -14.77197266 266.82373047 C-27.59246828 259.24158131 -40.69426452 252.33206579 -53.95996094 245.56494141 C-57.40104854 243.79354954 -60.80989296 241.96791901 -64.21606445 240.13061523 C-101.63361618 220.03394798 -144.62167293 200.48124754 -187 195 C-188.05598389 194.86126465 -188.05598389 194.86126465 -189.13330078 194.71972656 C-206.60015081 192.59139495 -225.88727805 194.81723988 -238.859375 207.87109375 Z M-828 199 C-827 202 -827 202 -827 202 Z M-243 227 C-245.18994248 230.28491373 -245.35277339 231.83095639 -245.625 235.6875 C-245.69976563 236.68136719 -245.77453125 237.67523437 -245.8515625 238.69921875 C-245.90054688 239.45847656 -245.94953125 240.21773437 -246 241 C-245.030625 240.13375 -244.06125 239.2675 -243.0625 238.375 C-227.74624997 225.41274448 -213.13434558 223.62167732 -193.46728516 224.69091797 C-183.99923046 225.53492284 -175.01688027 228.09365969 -166 231 C-164.99791504 231.32145996 -163.99583008 231.64291992 -162.96337891 231.97412109 C-126.2949047 243.99858018 -90.88266038 262.06529867 -57.6015625 281.48974609 C-54.91204901 283.05105713 -52.20861934 284.58537892 -49.5 286.11328125 C-48.58661865 286.62971191 -47.6732373 287.14614258 -46.73217773 287.67822266 C-45.05550947 288.62611138 -43.37805441 289.57261114 -41.69946289 290.51708984 C-26.94356109 298.91445865 -12.80130986 308.32849828 1.3125 317.75 C2.1709552 318.3227063 3.0294104 318.8954126 3.91387939 319.48547363 C26.85865485 334.81121303 49.02607595 350.87603016 69 370 C69.91724854 370.86842529 69.91724854 370.86842529 70.85302734 371.75439453 C78.67619805 379.19386749 85.9451913 386.32503176 91 396 C91.34289063 396.62003906 91.68578125 397.24007812 92.0390625 397.87890625 C94.60831446 403.05342772 95.77433899 409.36337223 94.5625 415.0546875 C92.95619899 419.30773451 90.85871461 421.71627095 87 424 C31.58633507 446.65084114 -53.9314323 410.8969986 -107.38461304 394.40795898 C-135.03235153 385.88189465 -162.47744375 377.99822063 -191 373 C-191.76473633 372.85594727 -192.52947266 372.71189453 -193.31738281 372.56347656 C-214.96766667 368.52080345 -244.10537465 367.2215598 -263.08203125 379.53515625 C-266.93685353 382.33589571 -266.93685353 382.33589571 -268.51171875 386.69921875 C-268.56972656 387.68535156 -268.62773438 388.67148437 -268.6875 389.6875 C-268.75324219 390.68136719 -268.81898438 391.67523437 -268.88671875 392.69921875 C-268.92410156 393.45847656 -268.96148438 394.21773437 -269 395 C-268.319375 394.29875 -267.63875 393.5975 -266.9375 392.875 C-266.47085938 392.41996094 -266.00421875 391.96492187 -265.5234375 391.49609375 C-264.52347411 390.51407843 -263.54801078 389.50634697 -262.6015625 388.47265625 C-254.4876332 380.37932067 -240.88632016 378.92857245 -229.90209961 378.80908203 C-200.93142065 378.8537948 -174.04680835 387.08187353 -146.47198486 395.26696777 C-55.09579898 423.5280776 -55.09579898 423.5280776 38 445 C39.06911621 445.19529297 40.13823242 445.39058594 41.23974609 445.59179688 C86.52719382 454.20635618 86.52719382 454.20635618 130.66796875 444.578125 C134.32423322 441.99409838 137.47891069 439.27806367 139 435 C140.70496048 421.89986063 135.04790978 411.73897253 127.29150391 401.61865234 C123.46735918 396.82582067 119.26741186 392.3962338 115 388 C114.08992188 387.04996094 113.17984375 386.09992188 112.2421875 385.12109375 C106.17845322 378.91051691 99.78695641 373.3965428 93 368 C91.80411543 367.01659759 90.61021654 366.03077712 89.41796875 365.04296875 C76.41172677 354.29538459 62.973751 344.10925408 48.8359375 334.890625 C45.76309857 332.84206571 42.79355423 330.67985079 39.8125 328.5 C21.63022884 315.37380282 2.23751524 304.03539375 -17.15261841 292.8139801 C-21.0682986 290.54672506 -24.96152079 288.24478576 -28.84521484 285.92333984 C-39.10579145 279.80366608 -49.62047173 274.15406532 -60.15478516 268.52246094 C-62.66282027 267.18042327 -65.16596446 265.82979297 -67.66796875 264.4765625 C-97.54812812 248.41808936 -128.65750005 233.35330231 -161 223 C-161.83466797 222.72961914 -162.66933594 222.45923828 -163.52929688 222.18066406 C-189.766253 213.74948475 -220.54674612 206.18966713 -243 227 Z M-246 217 C-245 219 -245 219 -245 219 Z M-247 219 C-246 223 -246 223 -246 223 Z M-251 229 C-251 230.98 -251 232.96 -251 235 C-250.67 235 -250.34 235 -250 235 C-250 233.02 -250 231.04 -250 229 C-250.33 229 -250.66 229 -251 229 Z M-247 247 C-249.1519437 250.22791555 -249.20086443 251.28400809 -249 255 C-248.360625 254.319375 -247.72125 253.63875 -247.0625 252.9375 C-237.05692163 243.01647581 -227.11448639 237.79473209 -212.9375 237.75 C-177.5570454 237.96147268 -145.80652735 253.02583417 -115 269 C-113.71410986 269.66259 -112.42814204 270.32502928 -111.14208984 270.98730469 C-74.02132625 290.16028197 -37.4169199 312.26910345 -6 340 C-5.08605469 340.80308594 -4.17210937 341.60617187 -3.23046875 342.43359375 C-0.7962159 344.59777957 1.60957938 346.78758942 4 349 C4.62390625 349.56976562 5.2478125 350.13953125 5.890625 350.7265625 C13.6826704 358.13251556 20.96137349 367.217577 23 378 C23 382.83683987 22.07683319 385.89406321 18.6875 389.375 C7.73613157 395.08647923 -5.03342497 394.5422207 -17 394 C-17.75087891 393.9680957 -18.50175781 393.93619141 -19.27539062 393.90332031 C-47.85947263 392.44545737 -76.53487826 385.45374039 -104.24952698 378.64930725 C-109.98367447 377.24177875 -115.72637338 375.87270265 -121.47265625 374.515625 C-123.28483809 374.08718933 -125.09701253 373.65872238 -126.90917969 373.23022461 C-128.26263489 372.91019974 -128.26263489 372.91019974 -129.64343262 372.58370972 C-141.33022908 369.81895221 -153.00181764 367.02429745 -164.62768555 364.01245117 C-193.1299557 356.64833489 -231.15522429 347.20581176 -259 362 C-262.67482638 364.23357004 -264.73674196 366.00338028 -265.875 370.3125 C-265.91625 371.199375 -265.9575 372.08625 -266 373 C-264.06320632 372.04224488 -262.13939364 371.07668202 -260.24609375 370.03515625 C-235.90014595 356.94197914 -203.5862009 364.40478545 -178 370 C-177.04498596 370.20880798 -176.08997192 370.41761597 -175.10601807 370.63275146 C-144.82553896 377.29046309 -114.74855507 384.76491257 -84.69125366 392.35284424 C-64.68439309 397.40164411 -44.65061215 402.15673314 -24.43408203 406.29199219 C-21.31390787 406.93528133 -18.20105134 407.60391708 -15.08984375 408.2890625 C18.86589221 415.86004877 18.86589221 415.86004877 52 409 C56.07376631 406.04152994 58.25049676 403.78811413 60 399 C61.33986087 390.36534104 57.07574324 383.65538422 52.41796875 376.60546875 C43.65293552 364.99130508 32.34784522 354.24621229 20.91796875 345.2890625 C18.61587056 343.48313273 16.35884022 341.64788774 14.11328125 339.7734375 C4.63248726 331.85947291 -5.04055524 324.30028952 -15 317 C-15.70205566 316.48083008 -16.40411133 315.96166016 -17.12744141 315.42675781 C-28.78714916 306.80837127 -40.75400903 298.76055646 -53 291 C-53.62245605 290.60441895 -54.24491211 290.20883789 -54.88623047 289.80126953 C-71.04532044 279.57042122 -87.96359703 270.66612042 -105 262 C-105.67321289 261.65727051 -106.34642578 261.31454102 -107.04003906 260.96142578 C-136.35787296 246.22209788 -171.77911441 232.23230488 -205 231 C-205.94746094 230.9484375 -206.89492188 230.896875 -207.87109375 230.84375 C-223.82945672 230.34569966 -236.48743668 234.94962765 -247 247 Z M-246.0703125 257.34765625 C-248.61672779 260.51778865 -250.70721779 263.12165338 -252 267 C-249.34710551 265.91919113 -247.83183546 264.82703076 -245.8125 262.75 C-235.33760292 252.50787841 -222.14635182 249.24865397 -207.80957031 249.32519531 C-158.73778966 251.47220661 -101.03298191 287.55511078 -63 317 C-61.75283203 317.94359375 -61.75283203 317.94359375 -60.48046875 318.90625 C-48.75091172 327.98719738 -37.08513691 338.05245032 -35.078125 353.51953125 C-34.95536064 357.41729977 -35.35761293 359.07194947 -38 362 C-69.7681672 380.37338028 -130.08570761 358.33878489 -163.845891 351.53627777 C-213.17698199 340.25125685 -213.17698199 340.25125685 -260.625 351.75 C-263.75293934 354.24983907 -263.9553513 354.65397255 -264.5 358.875 C-264.335 359.90625 -264.17 360.9375 -264 362 C-262.98292969 361.31164062 -262.98292969 361.31164062 -261.9453125 360.609375 C-242.17412426 347.5746304 -220.73738359 347.95676214 -197.91015625 351.9296875 C-196.6463916 352.14524292 -195.38262695 352.36079834 -194.08056641 352.58288574 C-173.78682128 356.1180278 -153.68826384 360.74515536 -133.56829834 365.14044189 C-69.91825218 383.55662395 -69.91825218 383.55662395 -8 375 C-5.25320755 370.87981132 -5.30917605 367.83576762 -6 363 C-8.77146997 353.97798075 -15.56616194 347.56437971 -22 341 C-22.62132812 340.34 -23.24265625 339.68 -23.8828125 339 C-28.32289914 334.36686611 -33.25079633 330.35584873 -38.27294922 326.37207031 C-39.49134148 325.40410813 -40.706186 324.43167215 -41.91845703 323.45605469 C-66.48847016 303.70426377 -93.16043625 287.65882838 -121.22949219 273.41308594 C-123.56191974 272.22344101 -125.88154155 271.01440614 -128.1953125 269.7890625 C-145.47202237 260.73345021 -164.10946665 252.93641509 -183 248 C-183.71994141 247.80825195 -184.43988281 247.61650391 -185.18164062 247.41894531 C-206.1223358 241.97507502 -230.39931235 239.57733344 -246.0703125 257.34765625 Z M-249.46875 270.75390625 C-251.14344308 273.21040757 -251.62972901 275.07383066 -252 278 C-249.88970185 275.96506964 -248.03472886 274.05075757 -246.375 271.625 C-238.25088403 262.64571393 -226.10984353 259.8850386 -214.4921875 258.6171875 C-173.34433887 257.1851278 -127.56170748 287.07040384 -97 312 C-95.7923008 312.93831675 -94.58410424 313.87599446 -93.375 314.8125 C-87.9154376 319.51991366 -82.72663594 326.29470142 -80 333 C-80.07375664 337.13037176 -80.29758889 339.23561144 -83.125 342.3125 C-95.1587537 349.37579021 -111.41339081 347.25889997 -124.6875 346 C-125.97551514 345.87826416 -127.26353027 345.75652832 -128.59057617 345.63110352 C-145.04531883 343.98759988 -161.38965457 341.3970985 -177.72729492 338.86914062 C-220.90042268 331.53740756 -220.90042268 331.53740756 -262 343 C-262 344.32 -262 345.64 -262 347 C-261.29746094 346.71253906 -260.59492187 346.42507813 -259.87109375 346.12890625 C-256.95720137 344.98317169 -254.02817473 343.94132555 -251.0625 342.9375 C-250.06347656 342.59589844 -249.06445312 342.25429688 -248.03515625 341.90234375 C-213.27303369 331.56765866 -168.1616381 345.94214079 -133.45727539 351.63916016 C-108.20648062 355.80769846 -108.20648062 355.80769846 -82.6875 357.4375 C-81.66640137 357.45997803 -80.64530273 357.48245605 -79.59326172 357.50561523 C-72.31121204 357.48216355 -65.01191098 356.40509595 -59.27612305 351.53686523 C-57.24337085 349.08877358 -57.12110942 347.14884484 -57 344 C-62.00021254 328.11697192 -78.36251195 315.93368243 -91.20410156 306.34277344 C-93.00812422 304.99392561 -94.79718681 303.62682375 -96.5859375 302.2578125 C-122.89436583 282.32343963 -153.13012714 266.73691219 -185 258 C-186.14855469 257.6803125 -187.29710937 257.360625 -188.48046875 257.03125 C-196.44535813 255.12179816 -204.14370847 254.69798019 -212.3125 254.625 C-213.31474609 254.61106201 -214.31699219 254.59712402 -215.34960938 254.58276367 C-229.97934617 254.67595442 -239.80183074 259.99370445 -249.46875 270.75390625 Z M-247 276 C-246.67 276.66 -246.34 277.32 -246 278 C-245.53851562 277.61328125 -245.07703125 277.2265625 -244.6015625 276.828125 C-233.47419565 267.94382419 -221.96429996 266.25691978 -208 267 C-189.50783174 269.09091944 -172.23732545 276.17862439 -156 285 C-155.31921387 285.36383789 -154.63842773 285.72767578 -153.93701172 286.10253906 C-121.08675444 303.70935915 -121.08675444 303.70935915 -115 318 C-113.9375 321.625 -113.9375 321.625 -114 325 C-117.10090719 329.2285098 -120.03908176 330.6518512 -125 332 C-128.23779297 332.25878906 -128.23779297 332.25878906 -131.7421875 332.265625 C-133.69294189 332.27178833 -133.69294189 332.27178833 -135.68310547 332.27807617 C-137.08041105 332.26989696 -138.47771 332.26050911 -139.875 332.25 C-140.5902887 332.24723053 -141.30557739 332.24446106 -142.0425415 332.24160767 C-153.9721646 332.18763724 -165.75656901 331.53592644 -177.62890625 330.33837891 C-219.19503868 325.61229209 -219.19503868 325.61229209 -260 333 C-260.33 334.98 -260.66 336.96 -261 339 C-259.64478127 338.60778376 -258.29093496 338.21082801 -256.9375 337.8125 C-255.54337891 337.4103125 -255.54337891 337.4103125 -254.12109375 337 C-250.96992513 336.04284043 -250.96992513 336.04284043 -247.91015625 334.6875 C-240.00100399 331.49847183 -233.08520116 330.57280969 -224.62109375 330.609375 C-222.94453957 330.61421654 -222.94453957 330.61421654 -221.2341156 330.61915588 C-206.65036257 330.83863083 -192.242317 332.78172779 -177.79724121 334.65020752 C-173.29529311 335.22896618 -168.79053491 335.78537957 -164.28620052 336.34520054 C-160.78826829 336.78033508 -157.29080878 337.21841329 -153.79457092 337.66697693 C-126.67622502 341.76047667 -126.67622502 341.76047667 -100.375 336.3125 C-97.77003905 334.12220802 -97.77003905 334.12220802 -96.875 330.75 C-97.1712054 321.86383788 -102.73634353 316.59097426 -108.90234375 310.78515625 C-136.87783821 285.27679201 -180.25330084 261.06031647 -219.15234375 262.68359375 C-230.2793888 263.59860964 -239.49223589 267.51296231 -247 276 Z M-242 278 C-242.33 278.66 -242.66 279.32 -243 280 C-238.99009223 278.44777764 -235.08951146 276.69622277 -231.18359375 274.90234375 C-215.31684602 268.34560184 -195.27436388 275.08308222 -180.19970703 281.06835938 C-169.29767298 285.68569144 -159.26511134 291.6414847 -150 299 C-148.70255859 299.98419922 -148.70255859 299.98419922 -147.37890625 300.98828125 C-143.10698845 304.60082258 -140.37760914 308.77630172 -139.4375 314.3125 C-140 317 -140 317 -141.5625 318.75 C-157.95856446 327.15823819 -182.26712003 322.84693522 -199.93359375 321.47265625 C-207.12759087 320.94306135 -214.28844738 320.81636471 -221.5 320.8125 C-222.70269531 320.80025391 -223.90539062 320.78800781 -225.14453125 320.77539062 C-232.5493738 320.76346016 -239.61469265 321.35135862 -246.92236328 322.55688477 C-251.00359708 323.14449696 -254.88498454 323.14189708 -259 323 C-259.33 324.65 -259.66 326.3 -260 328 C-255.79623579 327.54140754 -251.73886891 326.98263536 -247.625 326 C-239.77515534 324.18491031 -231.77723664 323.80300049 -223.7421875 323.80859375 C-222.41415604 323.80949257 -222.41415604 323.80949257 -221.05929565 323.81040955 C-206.74062803 323.93555433 -192.45461838 325.26550106 -178.18554688 326.36645508 C-153.60913594 329.35247417 -153.60913594 329.35247417 -130 324 C-127.70099825 322.024043 -127.07427523 321.35487056 -126.4375 318.3125 C-128.27049665 307.51818637 -140.60863369 299.26946092 -149.05859375 293.24438477 C-163.28724821 283.49660899 -179.30759228 276.28058384 -196 272 C-196.93457031 271.75636719 -197.86914062 271.51273438 -198.83203125 271.26171875 C-213.44272268 268.04167131 -229.8587685 268.39479597 -242 278 Z M-256 275 C-255 277 -255 277 -255 277 Z M-233 278 C-230.45783097 279.27108452 -229.68108626 278.72807085 -227 278 C-205.64179324 276.07140367 -183.68553236 282.30341143 -167 296 C-164.0625 298.6875 -164.0625 298.6875 -162 301 C-161.38125 301.61875 -160.7625 302.2375 -160.125 302.875 C-158.43372446 306.06963157 -159.27349529 308.56561409 -160 312 C-161.794375 312.7115625 -161.794375 312.7115625 -163.625 313.4375 C-164.63433594 313.83775391 -164.63433594 313.83775391 -165.6640625 314.24609375 C-171.02169198 315.97522835 -176.34937388 316.14151874 -181.93310547 316.11352539 C-182.7045137 316.11367142 -183.47592194 316.11381744 -184.27070618 316.1139679 C-186.80289591 316.11327508 -189.33501072 316.10551241 -191.8671875 316.09765625 C-193.6298112 316.09578983 -195.39243541 316.09436698 -197.15505981 316.09336853 C-201.78118334 316.08956103 -206.40727518 316.07974589 -211.03338623 316.06866455 C-215.75923229 316.05841238 -220.48508351 316.05386277 -225.2109375 316.04882812 C-234.47397221 316.03812198 -243.73698346 316.02106686 -253 316 C-254.35605968 312.14537365 -255.24143238 309.1043504 -255 305 C-256.7072444 307.97917548 -257.29529611 310.19569052 -257.3125 313.625 C-257.32925781 314.40101563 -257.34601562 315.17703125 -257.36328125 315.9765625 C-257.24339844 316.64429688 -257.12351562 317.31203125 -257 318 C-253.23856516 320.50762322 -250.69284691 320.00756163 -246.40380859 319.62231445 C-238.19177761 319.01271491 -230.06472195 318.91645966 -221.83430862 319.01653099 C-219.46078007 319.04387044 -217.08735358 319.06128963 -214.7137146 319.07600403 C-207.97969903 319.11809795 -201.2458885 319.16658289 -194.51220703 319.24682617 C-190.35585638 319.29564848 -186.19976373 319.32441628 -182.0431633 319.34057045 C-180.47801752 319.35037164 -178.91289748 319.36743158 -177.34791946 319.39235497 C-168.35659729 319.53261696 -160.17824879 319.29181313 -152 315 C-149.78239082 313.14455834 -149.78239082 313.14455834 -149.4375 310.375 C-150.77819362 302.33083828 -158.9815071 296.90363744 -165.234375 292.37109375 C-183.992813 280.05374372 -211.00348374 268.89799327 -233 278 Z M-262 277 C-262.95142738 278.30243942 -263.88527214 279.61772312 -264.8125 280.9375 C-278.4984657 298.58519261 -301.66108151 304.88567608 -322.85375977 307.59204102 C-329.94830864 308.35802345 -337.05952551 308.34826179 -344.1875 308.3125 C-345.36060226 308.30926727 -345.36060226 308.30926727 -346.55740356 308.30596924 C-384.47231356 308.13995986 -421.93118503 300.34263464 -459 293 C-489.34628774 287.00788955 -520.17568011 282.58802619 -551 280 C-552.24982666 279.89413574 -552.24982666 279.89413574 -553.52490234 279.78613281 C-593.61091898 276.5683553 -646.88078059 274.6984385 -679.875 301.8125 C-688.69784478 310.1078921 -692.94403346 320.40168622 -693.40283203 332.35766602 C-693.75444542 355.98757168 -682.32851154 375.33380949 -669 394 C-668.37786621 394.88099365 -668.37786621 394.88099365 -667.74316406 395.77978516 C-655.95455659 412.32407983 -640.79393259 426.29342956 -626.5 440.625 C-625.7962323 441.33153717 -625.0924646 442.03807434 -624.36737061 442.76602173 C-622.32084843 444.8184129 -620.2704819 446.86688063 -618.21875 448.9140625 C-617.61080597 449.52397537 -617.00286194 450.13388824 -616.37649536 450.76228333 C-612.63012293 454.48895688 -608.76204467 458.0250344 -604.75942993 461.47525024 C-602.41127495 463.51019842 -600.14735738 465.63108155 -597.875 467.75 C-593.2227253 471.99800807 -588.38742556 475.90300713 -583.40380859 479.75292969 C-579.15774531 483.04786557 -575.05653698 486.47509542 -571 490 C-565.31758211 494.92835295 -559.48736314 499.61813519 -553.546875 504.23046875 C-551.16176827 506.08372561 -548.79917008 507.96082153 -546.453125 509.86328125 C-537.31117181 517.27621017 -527.92216419 524.29685998 -518.41308594 531.23095703 C-516.08010243 532.94127659 -513.76058224 534.66814366 -511.4453125 536.40234375 C-492.11539484 550.85203843 -471.98265169 564.12718116 -451.72705078 577.234375 C-448.19698062 579.51991371 -444.67253485 581.81403973 -441.14819336 584.10839844 C-438.66269603 585.72547478 -436.17525591 587.3395261 -433.6875 588.953125 C-430.70150161 590.89084736 -427.72242738 592.83840649 -424.75 594.796875 C-376.90332333 627.72433644 -376.90332333 627.72433644 -321.4375 635.3125 C-316.91978056 634.17134596 -313.0747257 632.61060646 -310 629 C-308.82181536 626.0545384 -308.43248825 623.1291797 -308 620 C-307.6364205 618.43480314 -307.26162819 616.87216339 -306.875 615.3125 C-306.09012491 611.81735313 -305.81557144 608.5963569 -306 605 C-306.99 605.495 -307.98 605.99 -309 606.5 C-324.32013966 612.15708337 -340.86399892 605.75241223 -354.89477539 599.48632812 C-363.56570438 595.43604939 -371.67161187 590.44334771 -379.78173828 585.38378906 C-381.71148805 584.17997862 -383.6475987 582.98818219 -385.58984375 581.8046875 C-388.7354709 579.88387191 -391.86764576 577.94236672 -395 576 C-396.24977928 575.23661769 -397.49979094 574.47361574 -398.75 573.7109375 C-408.03367479 568.01772909 -416.97504853 561.93825512 -425.81152344 555.57519531 C-428.02902477 553.9791089 -430.25238521 552.39145402 -432.4765625 550.8046875 C-442.81234801 543.40969767 -452.96271944 535.79475242 -463 528 C-463.63454102 527.50725586 -464.26908203 527.01451172 -464.92285156 526.50683594 C-491.43438435 505.87750613 -518.51647037 483.85382604 -540.21875 458.0546875 C-542.12932767 455.8508194 -544.13196547 453.74612128 -546.14257812 451.63378906 C-565.08761627 431.59899209 -583.29861974 406.28450647 -584.4375 377.8125 C-584.20460526 369.51701122 -581.58555355 362.18400572 -576 356 C-576 355.34 -576 354.68 -576 354 C-575.15308594 353.60554688 -575.15308594 353.60554688 -574.2890625 353.203125 C-571.81534985 351.90294839 -569.65896785 350.35965353 -567.375 348.75 C-545.18981281 334.5514802 -515.07009324 333.58501029 -489.5 333.6875 C-488.62647888 333.68799347 -487.75295776 333.68848694 -486.85296631 333.68899536 C-468.25650529 333.71996007 -449.69682357 334.57368906 -431.125 335.4375 C-429.64329133 335.50617866 -428.16158153 335.57483305 -426.67987061 335.64346313 C-424.46805537 335.74596339 -422.25624064 335.8484744 -420.04442787 335.95102787 C-370.92682646 338.73204584 -370.92682646 338.73204584 -322 335 C-321.01241699 334.84869629 -320.02483398 334.69739258 -319.00732422 334.54150391 C-300.32122938 331.53421551 -282.43496846 325.05285656 -270 310 C-269.37222656 309.30519531 -268.74445313 308.61039063 -268.09765625 307.89453125 C-261.10840065 298.90426178 -261.43007128 287.94292491 -261 277 C-261.33 277 -261.66 277 -262 277 Z M-250 280 C-249 282 -249 282 -249 282 Z M-222.3125 279.5 C-223.63701172 279.63921875 -223.63701172 279.63921875 -224.98828125 279.78125 C-225.98408203 279.88953125 -225.98408203 279.88953125 -227 280 C-227 280.33 -227 280.66 -227 281 C-225.89785156 281.01417969 -224.79570313 281.02835938 -223.66015625 281.04296875 C-206.84444389 281.48027445 -189.71707127 284.82217149 -176.875 296.625 C-174.92496304 299.09504682 -173.70911547 300.92716631 -173 304 C-173.5625 306.1875 -173.5625 306.1875 -175 308 C-180.36203193 310.8299613 -186.27025856 311.1227693 -192.2331543 311.16113281 C-193.44428391 311.17074036 -194.65541351 311.1803479 -195.90324402 311.19024658 C-197.19716568 311.19449646 -198.49108734 311.19874634 -199.82421875 311.203125 C-200.81982787 311.20736607 -200.81982787 311.20736607 -201.83555031 311.21169281 C-205.34032202 311.2266171 -208.8450532 311.23589222 -212.34985352 311.24023438 C-215.96814584 311.24574384 -219.58606655 311.26984226 -223.20424175 311.29820633 C-225.9914714 311.31681033 -228.77861049 311.32203685 -231.56589699 311.32357025 C-233.54850744 311.32806669 -235.53106944 311.34671035 -237.51359558 311.36553955 C-238.71526871 311.36253845 -239.91694183 311.35953735 -241.1550293 311.35644531 C-242.21392868 311.36009094 -243.27282806 311.36373657 -244.36381531 311.36749268 C-247 311 -247 311 -248.85359192 309.70819092 C-250.7058464 306.94826247 -250.18209154 304.21695051 -250 301 C-252.21370051 302.78657757 -252.21370051 302.78657757 -252.1953125 305.1640625 C-252.17210937 305.97617187 -252.14890625 306.78828125 -252.125 307.625 C-252.09792969 308.85089844 -252.09792969 308.85089844 -252.0703125 310.1015625 C-252.04710937 310.72804688 -252.02390625 311.35453125 -252 312 C-248.75654653 313.9194576 -246.34600034 314.25250949 -242.59912109 314.25878906 C-241.51633881 314.26509338 -240.43355652 314.27139771 -239.31796265 314.27789307 C-238.14826935 314.2738446 -236.97857605 314.26979614 -235.7734375 314.265625 C-234.55661285 314.26753845 -233.33978821 314.2694519 -232.08609009 314.27142334 C-229.50205276 314.27278565 -226.91800859 314.26908603 -224.33398438 314.26074219 C-220.43863854 314.25017267 -216.54376771 314.26056856 -212.6484375 314.2734375 C-201.92373349 314.28066265 -191.21596318 314.28590546 -180.5390625 313.171875 C-179.84364349 313.10276917 -179.14822449 313.03366333 -178.43173218 312.96246338 C-174.11466354 312.42692777 -170.72155847 311.24985443 -167 309 C-165.65892639 306.71242433 -165.65892639 306.71242433 -166 304 C-171.13906947 293.25467293 -184.37603372 287.14576619 -195 283 C-204.11154774 280.07342411 -212.75234715 278.48025036 -222.3125 279.5 Z M-252 283 C-251 285 -251 285 -251 285 Z M-249 285 C-248 287 -248 287 -248 287 Z M-221 285 C-217 286 -217 286 -217 286 Z M-206 285 C-204.515 285.99 -204.515 285.99 -203 287 C-202.01 286.67 -201.02 286.34 -200 286 C-202.97 285.505 -202.97 285.505 -206 285 Z M-214 286 C-210 287 -210 287 -210 287 Z M-251 288 C-250 290 -250 290 -250 290 Z M-203 289 C-201.68 289.99 -200.36 290.98 -199 292 C-198.34 291.67 -197.68 291.34 -197 291 C-199.81509993 288.7226499 -199.81509993 288.7226499 -203 289 Z M-195 289 C-193.02 289.99 -193.02 289.99 -191 291 C-191.33 290.34 -191.66 289.68 -192 289 C-192.99 289 -193.98 289 -195 289 Z M-191 291 C-190.36771484 291.68835938 -190.36771484 291.68835938 -189.72265625 292.390625 C-189.17480469 293.00421875 -188.62695312 293.6178125 -188.0625 294.25 C-187.51722656 294.85328125 -186.97195313 295.4565625 -186.41015625 296.078125 C-184.92071962 298.10804972 -184.32240354 299.51437269 -184 302 C-186.15799913 305.30046926 -189.3288145 306.0116039 -193 307 C-198.46541019 307.95574215 -203.73183798 308.14640179 -209.2578125 308.1328125 C-210.55693069 308.13424759 -210.55693069 308.13424759 -211.8822937 308.13571167 C-213.70261712 308.13638874 -215.52294301 308.13456761 -217.34326172 308.13037109 C-220.12342755 308.12500304 -222.9034328 308.13033886 -225.68359375 308.13671875 C-227.45833369 308.13605814 -229.23307353 308.13477733 -231.0078125 308.1328125 C-231.83499786 308.13483673 -232.66218323 308.13686096 -233.51443481 308.13894653 C-237.47649321 308.12289086 -241.13204106 307.98136424 -245 307 C-245.33 304.69 -245.66 302.38 -246 300 C-247.30859649 301.69712207 -247.30859649 301.69712207 -248 304 C-246.91666667 306.75 -246.91666667 306.75 -245 309 C-242.2701013 309.90996623 -240.65226496 310.13064763 -237.8425293 310.14526367 C-237.00703049 310.15164352 -236.17153168 310.15802338 -235.31071472 310.16459656 C-234.40767105 310.16570938 -233.50462738 310.1668222 -232.57421875 310.16796875 C-231.16545219 310.17296135 -231.16545219 310.17296135 -229.72822571 310.17805481 C-227.73345427 310.18312274 -225.73867435 310.18546318 -223.74389648 310.18530273 C-220.73731797 310.18746419 -217.73112172 310.20555105 -214.72460938 310.22460938 C-195.61372639 311.24122133 -195.61372639 311.24122133 -179 304 C-179.41688475 299.13634454 -181.41219465 297.17061868 -185 294 C-187.66872375 291.59422998 -187.66872375 291.59422998 -191 291 Z M-250 292 C-249 294 -249 294 -249 294 Z M-247 293 C-246 295 -246 295 -246 295 Z M-229 296 C-229 296.66 -229 297.32 -229 298 C-222.58604177 299.93012632 -218.38700473 300.09029246 -212 298 C-212 297.01 -212 296.02 -212 295 C-218.73886841 291.91937444 -222.55450383 292.96682533 -229 296 Z M-251 294 C-250 296 -250 296 -250 296 Z M-194 294 C-193.67 296.64 -193.34 299.28 -193 302 C-195.64 302.99 -198.28 303.98 -201 305 C-197.08883847 305.97779038 -196.32310813 306.11004184 -192.8125 304.8125 C-192.11769531 304.57144531 -191.42289063 304.33039063 -190.70703125 304.08203125 C-188.83688257 303.11931396 -188.83688257 303.11931396 -188.1484375 301.05859375 C-187.77121908 298.73970887 -187.77121908 298.73970887 -189.8125 296.25 C-190.534375 295.5075 -191.25625 294.765 -192 294 C-192.66 294 -193.32 294 -194 294 Z M-203 295 C-203.33 296.65 -203.66 298.3 -204 300 C-203.34 300 -202.68 300 -202 300 C-201.67 299.01 -201.34 298.02 -201 297 C-201.66 296.34 -202.32 295.68 -203 295 Z M-207 296 C-206 299 -206 299 -206 299 Z M-198 296 C-198.66 297.98 -199.32 299.96 -200 302 C-198.68 301.34 -197.36 300.68 -196 300 C-196.33 298.68 -196.66 297.36 -197 296 C-197.33 296 -197.66 296 -198 296 Z M-239 297 C-239 298.65 -239 300.3 -239 302 C-238.67 302 -238.34 302 -238 302 C-238 300.35 -238 298.7 -238 297 C-238.33 297 -238.66 297 -239 297 Z M-236 297 C-235 300 -235 300 -235 300 Z M-253 298 C-252 300 -252 300 -252 300 Z M-250 298 C-249 301 -249 301 -249 301 Z M-246 298 C-245 300 -245 300 -245 300 Z M-243 299 C-243.16687448 301.41645782 -243.16687448 301.41645782 -243 304 C-242.34 304.66 -241.68 305.32 -241 306 C-240.01 305.67 -239.02 305.34 -238 305 C-238.99 304.34 -239.98 303.68 -241 303 C-242.1875 300.875 -242.1875 300.875 -243 299 Z M-254 300 C-253 302 -253 302 -253 302 Z M-255 302 C-254 305 -254 305 -254 305 Z M-233 304 C-233 304.33 -233 304.66 -233 305 C-231.02 305 -229.04 305 -227 305 C-227 304.67 -227 304.34 -227 304 C-228.98 304 -230.96 304 -233 304 Z M-237 306 C-237 306.33 -237 306.66 -237 307 C-235.02 307 -233.04 307 -231 307 C-231 306.67 -231 306.34 -231 306 C-232.98 306 -234.96 306 -237 306 Z M-224 306 C-220 307 -220 307 -220 307 Z M-210 306 C-210 306.33 -210 306.66 -210 307 C-208.35 307 -206.7 307 -205 307 C-205 306.67 -205 306.34 -205 306 C-206.65 306 -208.3 306 -210 306 Z M-261 314 C-260 318 -260 318 -260 318 Z M-267 323 C-268.38103726 324.81317803 -269.72886911 326.65167451 -271.0625 328.5 C-280.68277114 341.50093456 -291.74687569 349.42674304 -307 355 C-307.90234375 355.33644531 -308.8046875 355.67289063 -309.734375 356.01953125 C-337.32792942 365.3789666 -367.47056583 366.38519816 -396.27734375 368.7734375 C-447.90287851 371.64920895 -447.90287851 371.64920895 -491 397 C-497.48510485 404.96872554 -498.67166224 413.42399761 -497.6640625 423.4765625 C-488.14733483 473.97119989 -431.36913832 516.10126538 -392.79492188 544.66601562 C-390.68582267 546.23349632 -388.58556202 547.81255508 -386.484375 549.390625 C-377.56223996 556.06476876 -368.67708735 562.4541982 -359 568 C-358.31583008 568.39670898 -357.63166016 568.79341797 -356.92675781 569.20214844 C-335.34906202 582.31311758 -335.34906202 582.31311758 -311 586 C-306.11462183 584.69550323 -306.11462183 584.69550323 -302 582 C-301.77329092 580.44246949 -301.60564908 578.87622641 -301.46484375 577.30859375 C-301.33432617 575.89223633 -301.33432617 575.89223633 -301.20117188 574.44726562 C-301.0706543 572.95743164 -301.0706543 572.95743164 -300.9375 571.4375 C-300.80118164 569.94186523 -300.80118164 569.94186523 -300.66210938 568.41601562 C-300.43741186 565.94434298 -300.21689649 563.47236744 -300 561 C-301.16535278 561.06247925 -301.16535278 561.06247925 -302.35424805 561.1262207 C-322.55403219 562.02861656 -338.0141714 551.33882641 -352.39379883 538.43505859 C-354.20831646 536.8138799 -356.04537604 535.22014452 -357.8828125 533.625 C-364.13598706 528.15765418 -370.15470522 522.43929804 -376.18066406 516.72412109 C-377.66504407 515.31742603 -379.1558208 513.91748347 -380.6484375 512.51953125 C-396.10881793 497.64519412 -412.90391497 475.96643751 -413.38085938 453.76000977 C-413.34941576 442.30274291 -411.07728234 434.39308337 -403.5234375 425.44921875 C-398.62852994 420.69827906 -392.90479102 417.35095621 -387 414 C-386.11183594 413.47921875 -385.22367188 412.9584375 -384.30859375 412.421875 C-370.66418818 405.02014083 -355.17202982 400.54742808 -340.390625 396.02734375 C-311.50098643 387.15204434 -287.44019697 374.09652084 -271 348 C-267.05309034 340.48327395 -266.86763821 331.31911929 -266 323 C-266.33 323 -266.66 323 -267 323 Z M-274 368 C-275.21140332 369.81746023 -275.21140332 369.81746023 -276.4375 372.1875 C-287.73101622 391.63438403 -306.13542625 405.33131861 -323.703125 418.72265625 C-325.13553492 419.81494911 -326.56782986 420.90739278 -328 422 C-328.66064453 422.5038623 -329.32128906 423.00772461 -330.00195312 423.52685547 C-343.82712365 434.10669731 -356.94048927 445.07147753 -359.8125 463.25 C-361.32553951 482.05032069 -350.80275209 498.9763083 -339.28588867 512.8659668 C-333.40922256 519.75331928 -327.26648261 525.5728458 -320 531 C-319.2575 531.59554687 -318.515 532.19109375 -317.75 532.8046875 C-311.81323629 537.50462544 -306.76786152 539.71924644 -299 539 C-296.6962592 538.19029455 -296.6962592 538.19029455 -295 536 C-294.20422123 532.80109261 -293.98048205 529.5944684 -293.75 526.3125 C-293.67265625 525.41982422 -293.5953125 524.52714844 -293.515625 523.60742188 C-293.3272483 521.40576924 -293.15605657 519.20414043 -293 517 C-293.53544434 516.67966797 -294.07088867 516.35933594 -294.62255859 516.02929688 C-305.77979958 509.23110509 -311.66965642 499.77157428 -315.140625 487.125 C-319.80818976 467.14772742 -312.27427126 448.80836135 -302 432 C-299.22953886 427.68048665 -296.39923289 423.40115044 -293.5625 419.125 C-279.79427083 400.15568957 -279.79427083 400.15568957 -274.07421875 378.1015625 C-273.97092639 375.17675778 -272.62547973 373.36433415 -271 371 C-271.495 369.515 -271.495 369.515 -272 368 C-272.66 368 -273.32 368 -274 368 Z M-271 388 C-271.73711189 389.94329497 -272.47233462 391.88733999 -273.1953125 393.8359375 C-273.86806578 395.6451866 -274.55707001 397.44838203 -275.25 399.25 C-276.01236038 402.04532141 -276.02507404 403.33480751 -275 406 C-272.31211302 402.08967675 -271.42764016 398.8720289 -270.8125 394.1875 C-270.65394531 393.02605469 -270.49539063 391.86460937 -270.33203125 390.66796875 C-270.22246094 389.78753906 -270.11289062 388.90710938 -270 388 C-270.33 388 -270.66 388 -271 388 Z M-275 409 C-274 411 -274 411 -274 411 Z M-280 414 C-279 417 -279 417 -279 417 Z M-281 417 C-295.36607125 451.7417842 -295.36607125 451.7417842 -292.8515625 488.3828125 C-292.09881698 490.19352695 -292.09881698 490.19352695 -290 491 C-287.1429196 477.77579929 -284.60124219 464.70732595 -283.47265625 451.21875 C-282.85129981 443.8605057 -281.85017928 436.54132513 -280.87646484 429.22265625 C-280.74836426 428.21074219 -280.62026367 427.19882813 -280.48828125 426.15625 C-280.37009033 425.25712891 -280.25189941 424.35800781 -280.13012695 423.43164062 C-280.00172312 421.03219945 -280.2797253 419.27783145 -281 417 Z M-279 419 C-278 423 -278 423 -278 423 Z M306 420 C306 421.65 306 423.3 306 425 C306.33 425 306.66 425 307 425 C307 423.35 307 421.7 307 420 C306.67 420 306.34 420 306 420 Z M-280 423 C-279 426 -279 426 -279 426 Z M-859 432 C-859.0810347 432.64320694 -859.1620694 433.28641388 -859.24555969 433.94911194 C-860.09918111 440.71601593 -860.96044917 447.48191699 -861.82592773 454.24731445 C-862.14685316 456.76367252 -862.46590546 459.28027029 -862.78295898 461.79711914 C-866.51809133 491.42524769 -866.51809133 491.42524769 -870 505 C-868.53530273 505.35396851 -868.53530273 505.35396851 -867.04101562 505.71508789 C-863.3320723 506.61559369 -859.62815744 507.53553885 -855.92529297 508.46069336 C-854.33833653 508.85447709 -852.75015134 509.24334954 -851.16064453 509.62670898 C-836.65285369 513.13191621 -823.50677151 518.30196383 -810.375 525.4375 C-808.77213708 526.29557603 -807.16927236 527.15364869 -805.56640625 528.01171875 C-804.69387207 528.4814209 -803.82133789 528.95112305 -802.92236328 529.43505859 C-799.61140487 531.2080948 -796.28863032 532.95822445 -792.96484375 534.70703125 C-778.14235003 542.51931817 -763.5339666 550.5994219 -749.12255859 559.15332031 C-745.77321091 561.13412296 -742.41347636 563.09667739 -739.05078125 565.0546875 C-723.42414464 574.15997911 -707.92040475 583.45146711 -692.48388672 592.875 C-688.9936036 595.00502099 -685.49936774 597.12848999 -682.00390625 599.25 C-681.42606888 599.60071564 -680.84823151 599.95143127 -680.25288391 600.31277466 C-677.91931478 601.72891857 -675.58558043 603.14478992 -673.2517395 604.56048584 C-667.39621886 608.11255213 -661.54188207 611.66639633 -655.69873047 615.23878479 C-640.63117553 624.45053288 -625.44882499 633.4264557 -610.12304688 642.20458984 C-605.067256 645.11111628 -600.03390977 648.05579383 -595 651 C-575.15851986 662.58849647 -555.25654923 674.05540857 -535.17724609 685.22753906 C-531.95321704 687.02609838 -528.73591266 688.83624237 -525.51953125 690.6484375 C-512.13147438 698.16920663 -498.61741107 705.36134573 -484.94848633 712.35302734 C-477.9190628 715.95227353 -470.94087138 719.61751767 -464.0625 723.5 C-456.93866441 727.51491146 -449.72648257 731.26813227 -442.37207031 734.84277344 C-439.6354675 736.17783903 -436.90821202 737.53131681 -434.1796875 738.8828125 C-389.8475172 760.86096595 -389.8475172 760.86096595 -341.5 761.9375 C-331.76719906 758.37873775 -325.53555776 751.07111552 -321 742 C-320.84530633 739.82325217 -320.74997894 737.6421652 -320.68359375 735.4609375 C-320.62075195 733.50800781 -320.62075195 733.50800781 -320.55664062 731.515625 C-320.51682701 730.13541955 -320.47711478 728.75521117 -320.4375 727.375 C-320.39430593 725.98696585 -320.35069135 724.59894472 -320.30664062 723.2109375 C-320.20028 719.80739744 -320.09825286 716.40378222 -320 713 C-320.89295776 713.60944458 -320.89295776 713.60944458 -321.80395508 714.23120117 C-322.59697021 714.76720947 -323.38998535 715.30321777 -324.20703125 715.85546875 C-324.98796143 716.38551514 -325.7688916 716.91556152 -326.57348633 717.46166992 C-340.45325358 726.2609871 -356.11741096 724.50228722 -371.54296875 721.25390625 C-387.81976572 717.26014473 -403.32533511 710.7456541 -418.12890625 702.96923828 C-420.54095596 701.71978142 -422.98618717 700.54062806 -425.43041992 699.35571289 C-439.81673304 692.33704333 -453.70295101 684.27239471 -467.625 676.3828125 C-468.91662838 675.65097409 -470.20829274 674.91919918 -471.5 674.1875 C-472.11552734 673.83848633 -472.73105469 673.48947266 -473.36523438 673.12988281 C-477.41595998 670.84841512 -481.51415844 668.6750884 -485.64135742 666.53540039 C-496.97088428 660.66130868 -507.96510165 654.27674599 -518.95458984 647.79248047 C-522.82920019 645.51194582 -526.71648315 643.25361561 -530.60424805 640.99560547 C-554.19540981 627.28365292 -577.63437286 613.33337475 -600.82910156 598.96044922 C-604.08700849 596.94620587 -607.35109876 594.94235267 -610.6171875 592.94140625 C-623.59557039 584.98792833 -636.49526392 576.92523826 -649.31445312 568.71777344 C-653.87087384 565.80332106 -658.4359177 562.90243322 -663 560 C-664.83337353 558.8333965 -666.66670689 557.66672988 -668.5 556.5 C-669.86125 555.63375 -669.86125 555.63375 -671.25 554.75 C-674 553 -676.75 551.25 -679.5 549.5 C-680.4072583 548.92266113 -681.3145166 548.34532227 -682.24926758 547.75048828 C-684.08506912 546.58223612 -685.9208438 545.41394176 -687.7565918 544.24560547 C-692.30194376 541.35285245 -696.84773967 538.4608023 -701.39453125 535.5703125 C-721.63421252 522.70147841 -741.8412627 509.78328421 -761.9609375 496.72753906 C-771.05703839 490.8267582 -780.17637867 484.96365623 -789.3125 479.125 C-798.6851295 473.13426169 -808.02943202 467.10230248 -817.34765625 461.02734375 C-820.4116603 459.03041214 -823.48174082 457.04348183 -826.55859375 455.06640625 C-848.96889127 440.66296178 -848.96889127 440.66296178 -855.68310547 434.86450195 C-856.30635712 434.32718948 -856.92960876 433.78987701 -857.57174683 433.23628235 C-858.04307037 432.82830917 -858.51439392 432.420336 -859 432 Z M-278 455 C-280.49118953 458.7367843 -280.2065226 460.74451819 -280.125 465.1875 C-280.10695313 466.45980469 -280.08890625 467.73210938 -280.0703125 469.04296875 C-280.04710937 470.01878906 -280.02390625 470.99460937 -280 472 C-279.443125 471.61328125 -278.88625 471.2265625 -278.3125 470.828125 C-266.48247442 462.75493187 -255.75100598 458.41645163 -241.25 458.5625 C-239.60874146 458.57603516 -239.60874146 458.57603516 -237.93432617 458.58984375 C-226.97010461 458.81821547 -216.65213242 460.48667444 -206 463 C-204.48792969 463.34683838 -204.48792969 463.34683838 -202.9453125 463.70068359 C-151.81279131 475.67900801 -102.15087475 495.78821139 -52.90158081 513.78485107 C-28.41462313 522.72657505 -3.80433836 531.31787386 20.81414795 539.88946533 C23.77303405 540.92088347 26.73078179 541.9554769 29.68798828 542.99169922 C51.61411798 550.67120158 73.62317517 557.74988668 96 564 C96.80862488 564.22707642 97.61724976 564.45415283 98.45037842 564.68811035 C177.44208537 587.97315874 177.44208537 587.97315874 255.64453125 571.90234375 C268.87210815 564.40312378 276.46711945 554.69100698 283.9375 541.75 C284.31535645 541.10095703 284.69321289 540.45191406 285.08251953 539.78320312 C289.28132435 532.23263672 290.30873384 524.70196442 291.0625 516.1875 C291.14483887 515.31254883 291.22717773 514.43759766 291.31201172 513.53613281 C291.54714968 511.02458002 291.77443886 508.51242814 292 506 C292.11472656 504.76378906 292.22945312 503.52757812 292.34765625 502.25390625 C292.57086006 499.83638897 292.78920246 497.41862444 293 495 C291.15484576 497.76773135 289.83668414 500.51712915 288.48852539 503.54663086 C278.94730374 524.81349315 265.85128777 542.54743266 243.875 551.8125 C241.59926844 552.58997413 239.30558587 553.31611848 237 554 C236.3714209 554.19464844 235.7428418 554.38929688 235.09521484 554.58984375 C210.93327159 561.7351007 181.46648861 559.67970728 157 555 C155.66855209 554.7593116 154.33682576 554.52016026 153.00488281 554.28222656 C78.95265713 540.98572195 8.1207649 515.89018652 -62.34667969 490.15942383 C-78.25361859 484.35147852 -94.18867659 478.63626323 -110.17285156 473.04473877 C-114.90324169 471.38877214 -119.62651188 469.71337651 -124.34765625 468.03125 C-132.88782233 464.99029116 -141.43802027 461.97900462 -150 459 C-151.12749664 458.60754089 -151.12749664 458.60754089 -152.277771 458.20715332 C-217.48099151 433.58102348 -217.48099151 433.58102348 -278 455 Z M304 444 C305 446 305 446 305 446 Z M303 451 C303 452.98 303 454.96 303 457 C303.33 457 303.66 457 304 457 C304 455.02 304 453.04 304 451 C303.67 451 303.34 451 303 451 Z M302 458 C303 460 303 460 303 460 Z M-283 468 C-282 472 -282 472 -282 472 Z M-282 472 C-281.67 472.99 -281.34 473.98 -281 475 C-280.67 474.01 -280.34 473.02 -280 472 C-280.66 472 -281.32 472 -282 472 Z M-286 474 C-286 475.98 -286 477.96 -286 480 C-285.67 480 -285.34 480 -285 480 C-285 478.02 -285 476.04 -285 474 C-285.33 474 -285.66 474 -286 474 Z M-280.07421875 490.9140625 C-282.81393116 493.88162118 -284.21428068 496.03566649 -284.6328125 500.01171875 C-284.71660156 500.76904297 -284.80039062 501.52636719 -284.88671875 502.30664062 C-284.96535156 503.09232422 -285.04398438 503.87800781 -285.125 504.6875 C-285.21136719 505.48478516 -285.29773438 506.28207031 -285.38671875 507.10351562 C-285.59848472 509.06823326 -285.80021473 511.03402796 -286 513 C-285.05125 512.113125 -284.1025 511.22625 -283.125 510.3125 C-271.74846306 500.72273526 -256.59024272 497.9496553 -242 499 C-240.12054687 499.12181641 -240.12054687 499.12181641 -238.203125 499.24609375 C-205.83639989 501.85147642 -174.38636615 514.37933589 -143.83358765 524.69728088 C-139.56133861 526.13978544 -135.28558113 527.5705534 -131.0042572 528.98588562 C-102.51941352 538.41875504 -74.53863672 549.25160036 -46.4970808 559.91152668 C-31.30002379 565.68767702 -16.0888141 571.4266916 -0.87597656 577.16113281 C2.25307593 578.34067658 5.38133801 579.52227171 8.50878906 580.70605469 C34.82384805 590.66058151 61.37841682 599.90065234 88 609 C88.89229309 609.30544739 89.78458618 609.61089478 90.70391846 609.92559814 C170.53151804 638.26762976 170.53151804 638.26762976 251.796875 625.66015625 C261.16205607 620.41041966 269.13728109 612.98584954 275 604 C275.73053589 602.92359253 275.73053589 602.92359253 276.47583008 601.82543945 C278.26436947 598.50992346 278.92323173 595.56767512 279.640625 591.87109375 C279.83757965 590.86381981 279.83757965 590.86381981 280.03851318 589.8361969 C280.31202513 588.42434791 280.58068582 587.01155129 280.84472656 585.59790039 C281.24990294 583.43801742 281.67460002 581.28262291 282.1015625 579.12695312 C282.36575634 577.75022458 282.62881637 576.37327787 282.890625 574.99609375 C283.12813477 573.75013428 283.36564453 572.5041748 283.61035156 571.22045898 C283.95747659 568.35145761 283.97415182 566.67390473 283 564 C282.67128906 564.65484375 282.34257813 565.3096875 282.00390625 565.984375 C275.70081282 578.07811525 268.7533356 587.80572993 257 595 C256.15566406 595.54269531 255.31132813 596.08539062 254.44140625 596.64453125 C217.8881923 617.60029252 164.57673575 606.24642522 126.671875 596.06640625 C63.9642649 578.65353959 2.8727411 553.81495897 -57.20214844 528.98193359 C-169.92742135 475.67235023 -169.92742135 475.67235023 -280.07421875 490.9140625 Z M292 516 C291.67 518.64 291.34 521.28 291 524 C293.1519437 520.77208445 293.20086443 519.71599191 293 516 C292.67 516 292.34 516 292 516 Z M-292 517 C-292 518.65 -292 520.3 -292 522 C-291.34 521.34 -290.68 520.68 -290 520 C-290 519.01 -290 518.02 -290 517 C-290.66 517 -291.32 517 -292 517 Z M-286.5625 533.2265625 C-293.18666263 540.76367062 -292.57501328 554.35719777 -293 564 C-292.55011719 563.63648438 -292.10023438 563.27296875 -291.63671875 562.8984375 C-276.34619611 550.94792883 -260.46400106 547.35089935 -241.2578125 549.50390625 C-205.53274227 553.92939285 -171.67225098 567.26274414 -138.26965332 580.12628174 C-135.86886257 581.05048223 -133.46721047 581.97241857 -131.06542969 582.89404297 C-111.40402382 590.44214285 -91.77620351 598.07574503 -72.16650391 605.75708008 C-64.43887808 608.78400896 -56.71020624 611.80826656 -48.98162842 614.83276367 C-45.95899057 616.01605421 -42.93675993 617.20038066 -39.91455078 618.38476562 C-11.90355072 629.35663629 16.20001755 639.99962931 44.53137207 650.11700439 C46.87724532 650.95609227 49.22162932 651.7991847 51.56542969 652.64404297 C71.569893 659.85028738 91.71278404 666.63811722 111.90239716 673.30550766 C113.77539383 673.92522275 115.64726143 674.54834694 117.519104 675.17153931 C179.87569171 695.9210501 179.87569171 695.9210501 243.15625 686.4375 C251.93818159 681.99828183 259.18642379 677.05046326 265 669 C265.49363037 668.32904297 265.98726074 667.65808594 266.49584961 666.96679688 C271.238954 659.93359624 272.25238926 653.47336934 272.9375 645.125 C273.1240918 643.31128906 273.1240918 643.31128906 273.31445312 641.4609375 C274.10925366 634.66224798 274.10925366 634.66224798 273 628 C272.50693359 628.80050781 272.50693359 628.80050781 272.00390625 629.6171875 C261.79314877 645.61127374 249.45467863 654.6562791 231 659 C213.16675895 662.40225047 192.6710365 660.72991673 175 657 C173.98260742 656.79020508 172.96521484 656.58041016 171.91699219 656.36425781 C111.10069886 643.58053389 52.38996095 621.97660941 -5.53198242 599.84960938 C-10.54186945 597.93583687 -15.55480407 596.0305012 -20.5715332 594.13476562 C-34.26950707 588.95736773 -47.9351312 583.70923844 -61.55728149 578.33557129 C-107.35715056 560.29017025 -153.32602667 542.49725145 -201 530 C-202.72331543 529.54391357 -202.72331543 529.54391357 -204.48144531 529.07861328 C-221.06931832 524.67266558 -221.06931832 524.67266558 -238 522 C-239.17046875 521.86722656 -240.3409375 521.73445313 -241.546875 521.59765625 C-258.27432036 520.05331741 -273.49228314 521.86981919 -286.5625 533.2265625 Z M294 540 C295 542 295 542 295 542 Z M290 546 C289.67 547.98 289.34 549.96 289 552 C289.66 551.34 290.32 550.68 291 550 C290.6814823 547.89179203 290.6814823 547.89179203 290 546 Z M288 552 C289 554 289 554 289 554 Z M-296 557 C-296 560.63 -296 564.26 -296 568 C-295.67 568 -295.34 568 -295 568 C-295 564.37 -295 560.74 -295 557 C-295.33 557 -295.66 557 -296 557 Z M-293 590 C-293.70511719 590.52464844 -294.41023437 591.04929687 -295.13671875 591.58984375 C-298.03309985 595.33631574 -298.41302402 599.46466159 -299.1875 604.0625 C-299.51299506 605.86612556 -299.83976374 607.66952185 -300.16796875 609.47265625 C-300.37329224 610.66773804 -300.37329224 610.66773804 -300.58276367 611.88696289 C-301 614 -301 614 -302 617 C-302.068991 619.06145107 -302.08467727 621.12501401 -302.0625 623.1875 C-302.05347656 624.27417969 -302.04445313 625.36085938 -302.03515625 626.48046875 C-302.02355469 627.31191406 -302.01195312 628.14335938 -302 629 C-301.05125 628.113125 -300.1025 627.22625 -299.125 626.3125 C-285.32016069 614.58253634 -266.083566 612.79873774 -248.6640625 614.18603516 C-214.63286076 617.48045946 -182.52154206 629.58467907 -151.07299805 642.32983398 C-139.01172238 647.21741783 -126.89477375 651.94892954 -114.75 656.625 C-113.88937958 656.95646027 -113.02875916 657.28792053 -112.14205933 657.62942505 C-109.56874782 658.62035396 -106.9953127 659.61096136 -104.421875 660.6015625 C-101.65012869 661.6688708 -98.87842169 662.73628095 -96.10678101 663.80386353 C-93.91464433 664.64785434 -91.72225811 665.49119717 -89.5296936 666.33407593 C-71.87162118 673.12519273 -54.27776011 680.05982416 -36.72954655 687.12974453 C-8.80295556 698.37989187 19.21985038 709.33215136 47.41259766 719.90087891 C52.82689303 721.93189955 58.23227324 723.98591413 63.63671875 726.04296875 C147.10975662 761.38320453 147.10975662 761.38320453 233.63671875 755.28125 C252.74909161 744.91950075 261.79835832 728.03729736 268 708 C268.26941406 707.13246094 268.53882813 706.26492188 268.81640625 705.37109375 C270.49086317 699.01284127 270.18162895 692.5285516 270 686 C267.69467132 688.96300503 265.746305 692.03464727 263.8125 695.25 C255.52733262 708.26707261 243.70215144 716.04747753 228.68823242 719.53735352 C181.36199914 729.18244591 128.12334233 709.30404693 83.99981689 693.70587158 C82.09895416 693.03492766 80.19577633 692.37055334 78.29248047 691.70654297 C43.26026674 679.44068595 8.9514714 664.96894228 -25 650 C-90.83273436 621.09005095 -157.72494839 593.01769701 -229 581 C-229.82145508 580.85594727 -230.64291016 580.71189453 -231.48925781 580.56347656 C-252.26894427 576.99448258 -276.09742997 575.56634469 -293 590 Z M-303 603 C-304.95031692 607.07723734 -305.21581971 610.31692422 -305.125 614.8125 C-305.10695313 615.97394531 -305.08890625 617.13539063 -305.0703125 618.33203125 C-305.04710937 619.21246094 -305.02390625 620.09289063 -305 621 C-302.06552643 618.06552643 -302.53841577 614.81740544 -302.375 610.875 C-302.33632813 610.12089844 -302.29765625 609.36679688 -302.2578125 608.58984375 C-302.16348969 606.72696816 -302.08065338 604.86351745 -302 603 C-302.33 603 -302.66 603 -303 603 Z M280 614 C275.11090577 623.14048051 275.79422368 633.87123227 276 644 C281.03175816 635.07409856 281.49452385 624.00037128 281 614 C280.67 614 280.34 614 280 614 Z M-312 671 C-313.85776765 674.13498292 -314.20140476 676.37471432 -314 680 C-311.90250005 677.64031256 -311.03094296 676.45383006 -310.8125 673.25 C-310.874375 672.5075 -310.93625 671.765 -311 671 C-311.33 671 -311.66 671 -312 671 Z " fill="#FFFFFF" transform="translate(979,608)"/>
<path d="" fill="#FFFFFF" transform="translate(0,0)"/>
</svg>
